<?xml version="1.0" encoding="UTF-8"?>
<svg id="Layer_1" data-name="Layer 1" xmlns="http://www.w3.org/2000/svg" viewBox="0 0 1032.07 1191.47">
  <defs>
    <style>
      .cls-1 {
        opacity: .18;
        stroke: #000;
        stroke-width: 19px;
      }

      .cls-1, .cls-2 {
        fill: none;
        stroke-linecap: round;
        stroke-linejoin: round;
      }

      .cls-2 {
        stroke: #fff;
        stroke-width: 5px;
      }

      .cls-3 {
        opacity: .2;
      }

      .cls-4 {
        opacity: .25;
      }

      .cls-5, .cls-6, .cls-7, .cls-8, .cls-9, .cls-10, .cls-11, .cls-12, .cls-13, .cls-14, .cls-15, .cls-16 {
        stroke-width: 0px;
      }

      .cls-6 {
        fill: #2d2829;
      }

      .cls-7 {
        fill: #564f50;
      }

      .cls-8 {
        fill: #383435;
      }

      .cls-9 {
        fill: #3d393a;
      }

      .cls-10 {
        fill: #1e1b1c;
      }

      .cls-11 {
        fill: #de4010;
      }

      .cls-12 {
        fill: #dc0932;
      }

      .cls-13 {
        fill: #920043;
      }

      .cls-14 {
        fill: #b62753;
      }

      .cls-15 {
        fill: #f1a6bd;
      }

      .cls-16 {
        fill: #ef1b4e;
      }
    </style>
  </defs>
  <polyline class="cls-1" points="974.13 637.5 967.86 636.37 966.25 636.16 964 635.83 959.89 635.5 955.53 635.34 948.28 635.66 941.88 636.46 934.51 637.8 927.65 639.49 919.82 641.96 914.35 644.07 905.67 648.01 887.87 657.73 884.12 660.07 882.67 660.95 881.49 661.75 880.01 662.67 873.34 666.99 859.49 676.7 853.38 681.2 847.95 685.2 810.88 713.98 808.59 715.69 799.22 722.96 782.89 735.19 766.64 746.61 761.92 749.77 750.14 757.19 742.95 761.43 738.01 764.21 735.7 765.43 733.03 766.88 730.72 768.04 728.14 769.38 723.11 771.87 717.94 774.23 710.11 777.59 704.68 779.75 699.21 781.74 693.67 783.63 687.96 785.38 685 786.21 676.16 788.48 667.28 790.33 664.14 790.91 660.97 791.42 654.73 792.29 651.48 792.67 648.22 792.99 640.01 793.61 633.22 793.86 631.78 793.86 630.16 793.92 626.33 793.91 624.82 793.86 623.02 793.85 615.89 793.59 614.39 793.48 612.55 793.41 608.73 793.14 607.16 792.98 605.25 792.84 601.43 792.44 599.88 792.23 597.89 792.02 590.48 791.02 582.9 789.76 581.28 789.44 579.3 789.11 575.28 788.33 573.57 787.94 571.56 787.55 565.62 786.22 563.94 785.79 561.84 785.32 547.91 781.64 546.13 781.08 542.1 779.96 530.07 776.21 528.32 775.61 526.26 774.98 522.04 773.57 520.19 772.9 516.1 771.53 496.24 764.3 492.53 762.88 490.25 762.04 488.46 761.31 486.41 760.54 482.71 759.01 480.62 758.22 458.67 748.89 450.08 744.92 433.68 737.11 430.34 735.6 427.21 734.12 417.37 729.9 414.18 728.59 410.93 727.33 402.71 724.42 397.83 722.91 392.84 721.56 389.54 720.79 386.13 720.05 384.24 719.74 382.62 719.42 381.1 719.17 375.9 718.49 370.64 717.99 365.38 717.65 361.98 717.54 354.8 717.54 349.48 717.71 344.15 718.05 331.38 719.42 320.16 721.25 318.03 721.7 316.19 722.03 308.51 723.69 300.58 725.63 288.95 728.91 275.31 733.3 273.2 734.06 271.4 734.67 269.3 735.44 267.5 736.05 260.12 738.81 258.07 739.64 254.41 741.01 252.37 741.86 250.63 742.51 231 750.83 229.08 751.75 223.92 754.01 222.11 754.88 218.82 756.36 216.95 757.28 215.31 758.02 205.44 762.77 198.85 766.01"/>
  <g>
    <polygon class="cls-6" points="126.5 600.46 133.36 602.22 132.4 597.06 175.24 608.04 216.58 759.42 220 777.18 208.66 785.4 214.18 793.74 167.92 781.92 166.96 776.76 135.58 768.72 129.58 763.44 127.6 753.24 125.8 752.76 97.66 606.54 99.46 606.96 97.54 596.76 102.04 594.18 126.5 600.46"/>
    <polygon class="cls-9" points="180.59 797.34 158.8 809.88 177.7 814.74 163.6 822.84 117.34 810.96 167.92 781.92 214.18 793.74 200.08 801.9 184.07 797.8 181.12 797.04 180.59 797.34"/>
    <polygon class="cls-16" points="181.12 797.04 184.07 797.8 184.06 797.82 183.52 798.12 180.59 797.34 181.12 797.04"/>
    <polygon class="cls-10" points="183.52 798.12 172.18 806.34 177.7 814.74 158.8 809.88 180.59 797.34 183.52 798.12"/>
    <polygon class="cls-8" points="166.96 776.76 167.92 781.92 117.34 810.96 116.32 805.8 123.7 801.6 125.15 800.77 131.7 797.01 154.08 784.17 159.58 781.02 166.96 776.76"/>
    <polygon class="cls-9" points="166.96 776.76 159.58 781.02 128.2 772.98 135.58 768.72 166.96 776.76"/>
    <polygon class="cls-9" points="83.26 790.05 82.66 789.9 118.12 769.5 126.82 771.78 126.83 771.77 128.2 772.98 159.58 781.02 154.08 784.17 154.06 784.14 125.44 776.82 103.12 789.66 131.68 796.98 131.7 797.01 125.15 800.77 125.14 800.76 90.4 791.88 83.26 790.05"/>
    <polygon class="cls-6" points="154.06 784.14 154.08 784.17 131.7 797.01 131.68 796.98 103.12 789.66 125.44 776.82 154.06 784.14"/>
    <polygon class="cls-6" points="135.58 768.72 128.2 772.98 126.83 771.77 122.2 767.7 129.58 763.44 135.58 768.72"/>
    <polygon class="cls-6" points="132.4 597.06 133.36 602.22 126.5 600.46 132.4 597.06"/>
    <polygon class="cls-6" points="120.3 757.91 120.22 757.5 127.6 753.24 129.58 763.44 122.2 767.7 120.3 757.91"/>
    <polygon class="cls-8" points="127.6 753.24 120.22 757.5 120.3 757.91 115.66 756.72 115.17 755.86 120.04 753.06 125.8 752.76 127.6 753.24"/>
    <polygon class="cls-6" points="126.83 771.77 126.82 771.78 118.12 769.5 115.66 756.72 120.3 757.91 122.2 767.7 126.83 771.77"/>
    <polygon class="cls-7" points="97.66 606.54 125.8 752.76 120.04 753.06 91.9 606.78 97.66 606.54"/>
    <polygon class="cls-6" points="125.15 800.77 123.7 801.6 92.38 793.56 90.4 791.88 125.14 800.76 125.15 800.77"/>
    <polygon class="cls-9" points="123.7 801.6 116.32 805.8 85 797.82 92.38 793.56 123.7 801.6"/>
    <path class="cls-8" d="m93.08,759.01l-1.67-8.7-2.39-12.37-16.86,9.72,4.2,21.72,16.86-9.66-.14-.71Zm.18-120.84l-1.67-8.7-2.39-12.37-16.86,9.72,4.2,21.72,16.86-9.66-.14-.71Zm5.22,27.18l-1.67-8.7-2.39-12.37-16.86,9.72,4.2,21.72,16.86-9.66-.14-.71Zm5.22,27.18l-1.67-8.7-2.39-12.37-16.86,9.72,4.2,21.72,16.86-9.66-.14-.71Zm5.22,27.18l-1.65-8.71-2.35-12.36-16.92,9.72,4.2,21.72,16.86-9.66-.14-.71Zm5.22,27.18l-1.65-8.71-2.35-12.36-16.86,9.72,4.14,21.72,16.86-9.66-.14-.71Zm-52.21-28.06l-1.11-5.77h.03c.03-.68-.03-1.35-.15-1.98v-.02l-1.8-9.24h.05c-.12-.63-.3-1.2-.56-1.71l-.03-.03-.35-1.8-.59-3.06-11.9-61.8,2.57-1.48,3.79-2.18,35.46-20.36,3.96-2.27.6-.35,28.14,146.28-4.87,2.8-35.48,20.38-6.03,3.46-1.26-6.54-2.1-10.86-5.02-26.1-1.09-5.64-2.26-11.73Zm24.26,4.3l-2.39-12.37-16.86,9.72,4.2,21.72,16.86-9.66-.14-.71-1.67-8.7Zm-3.41-17.77l-.14-.73-1.68-8.7-2.38-12.35-16.86,9.72,4.14,21.72,16.92-9.66Zm-5.28-27.24l-.12-.66h-.01l-1.65-8.7-2.36-12.36-16.86,9.66,4.14,21.78,16.86-9.72Zm-5.22-27.18l-.12-.66h-.01l-1.65-8.7-2.36-12.36-16.92,9.66,4.2,21.78,16.86-9.72Z"/>
    <polygon class="cls-8" points="80.78 780.13 80.2 777.12 79.69 776.24 115.17 755.86 115.66 756.72 118.12 769.5 82.66 789.9 80.78 780.13"/>
    <polygon class="cls-6" points="114.14 746.89 114.28 747.6 97.42 757.26 109 749.82 114.14 746.89"/>
    <polygon class="cls-10" points="112.49 738.18 114.14 746.89 109 749.82 107.32 741.12 112.48 738.18 112.49 738.18"/>
    <polygon class="cls-9" points="110.14 725.82 112.49 738.18 112.48 738.18 107.32 741.12 93.28 735.54 110.14 725.82"/>
    <polygon class="cls-6" points="108.92 719.71 109.06 720.42 92.2 730.08 103.78 722.64 108.92 719.71"/>
    <polygon class="cls-7" points="107.32 741.12 109 749.82 97.42 757.26 93.28 735.54 107.32 741.12"/>
    <polygon class="cls-10" points="107.27 711 108.92 719.71 103.78 722.64 102.1 713.94 107.26 711 107.27 711"/>
    <polygon class="cls-9" points="104.92 698.64 107.27 711 107.26 711 102.1 713.94 88 708.36 104.92 698.64"/>
    <polygon class="cls-6" points="103.7 692.53 103.84 693.24 86.98 702.9 98.56 695.46 103.7 692.53"/>
    <polygon class="cls-7" points="102.1 713.94 103.78 722.64 92.2 730.08 88 708.36 102.1 713.94"/>
    <polygon class="cls-10" points="102.03 683.83 103.7 692.53 98.56 695.46 96.88 686.76 102.03 683.83"/>
    <polygon class="cls-9" points="102.03 683.83 96.88 686.76 82.78 681.18 99.64 671.46 102.03 683.83"/>
    <polygon class="cls-6" points="97.54 596.76 99.46 606.96 97.66 606.54 91.9 606.78 91.3 607.13 90.16 601.02 93.16 599.29 97.54 596.76"/>
    <polygon class="cls-6" points="98.48 665.35 98.62 666.06 81.76 675.72 93.34 668.28 98.48 665.35"/>
    <polygon class="cls-7" points="96.88 686.76 98.56 695.46 86.98 702.9 82.78 681.18 96.88 686.76"/>
    <polygon class="cls-10" points="96.81 656.65 98.48 665.35 93.34 668.28 91.66 659.58 96.81 656.65"/>
    <polygon class="cls-9" points="96.81 656.65 91.66 659.58 77.56 654 94.42 644.28 96.81 656.65"/>
    <polygon class="cls-6" points="93.26 638.17 93.4 638.88 76.54 648.54 88.12 641.1 93.26 638.17"/>
    <polygon class="cls-7" points="91.66 659.58 93.34 668.28 81.76 675.72 77.56 654 91.66 659.58"/>
    <polygon class="cls-10" points="91.59 629.47 93.26 638.17 88.12 641.1 86.44 632.4 91.59 629.47"/>
    <polygon class="cls-6" points="93.08 759.01 93.22 759.72 76.36 769.38 87.94 761.94 93.08 759.01"/>
    <polygon class="cls-6" points="93.16 599.28 93.16 599.29 90.16 601.02 91.3 607.13 87.34 609.4 84.94 597.18 93.16 599.28"/>
    <polygon class="cls-10" points="91.41 750.31 93.08 759.01 87.94 761.94 86.26 753.24 91.41 750.31"/>
    <polygon class="cls-6" points="92.38 793.56 85 797.82 78.94 792.54 83.26 790.05 90.4 791.88 92.38 793.56"/>
    <polygon class="cls-9" points="91.59 629.47 86.44 632.4 72.34 626.82 89.2 617.1 91.59 629.47"/>
    <polygon class="cls-9" points="91.41 750.31 86.26 753.24 72.16 747.66 89.02 737.94 91.41 750.31"/>
    <polygon class="cls-7" points="86.44 632.4 88.12 641.1 76.54 648.54 72.34 626.82 86.44 632.4"/>
    <polygon class="cls-6" points="87.86 731.83 88 732.54 71.14 742.2 82.72 734.76 87.86 731.83"/>
    <polygon class="cls-7" points="86.26 753.24 87.94 761.94 76.36 769.38 72.16 747.66 86.26 753.24"/>
    <polygon class="cls-10" points="86.19 723.13 87.86 731.83 82.72 734.76 81.04 726.06 86.19 723.13"/>
    <polygon class="cls-8" points="50.71 623.66 49.54 617.52 84.94 597.18 87.34 609.4 51.88 629.76 50.71 623.66"/>
    <polygon class="cls-9" points="86.19 723.13 81.04 726.06 66.94 720.48 83.8 710.76 86.19 723.13"/>
    <polygon class="cls-6" points="83.26 790.05 78.94 792.54 77.02 782.34 80.78 780.13 82.66 789.9 83.26 790.05"/>
    <polygon class="cls-6" points="82.64 704.63 82.78 705.36 65.86 715.02 77.5 707.58 82.6 704.64 82.64 704.63"/>
    <polygon class="cls-7" points="81.04 726.06 82.72 734.76 71.14 742.2 66.94 720.48 81.04 726.06"/>
    <polygon class="cls-10" points="80.96 695.93 82.64 704.63 82.6 704.64 77.5 707.58 75.82 698.88 80.92 695.94 80.96 695.93"/>
    <polygon class="cls-9" points="78.58 683.58 80.96 695.93 80.92 695.94 75.82 698.88 61.72 693.3 78.58 683.58"/>
    <polygon class="cls-8" points="80.2 777.12 80.78 780.13 77.02 782.34 75.16 781.86 73.66 779.7 79.69 776.24 80.2 777.12"/>
    <polygon class="cls-6" points="77.38 677.46 77.5 678.12 60.64 687.84 72.22 680.4 77.37 677.46 77.38 677.46"/>
    <polygon class="cls-7" points="75.82 698.88 77.5 707.58 65.86 715.02 61.72 693.3 75.82 698.88"/>
    <polygon class="cls-10" points="75.72 668.76 77.37 677.46 72.22 680.4 70.6 671.7 75.7 668.76 75.72 668.76"/>
    <polygon class="cls-9" points="75.72 668.76 75.7 668.76 70.6 671.7 56.5 666.06 73.36 656.4 75.72 668.76"/>
    <polygon class="cls-6" points="72.16 650.28 72.28 650.94 55.42 660.66 67 653.22 72.15 650.28 72.16 650.28"/>
    <polygon class="cls-7" points="70.6 671.7 72.22 680.4 60.64 687.84 56.5 666.06 70.6 671.7"/>
    <polygon class="cls-10" points="70.5 641.58 72.15 650.28 67 653.22 65.32 644.52 70.48 641.58 70.5 641.58"/>
    <polygon class="cls-9" points="70.5 641.58 70.48 641.58 65.32 644.52 51.22 638.88 68.14 629.22 70.5 641.58"/>
    <polygon class="cls-7" points="65.32 644.52 67 653.22 55.42 660.66 51.22 638.88 65.32 644.52"/>
    <polygon class="cls-6" points="64.19 730.56 65.28 736.2 65.26 736.2 57.7 734.28 64.18 730.56 64.19 730.56"/>
    <path class="cls-8" d="m61.93,718.83l2.26,11.73h0l-6.48,3.72-10.5-13.02,4.08-2.34v-.06s-.01-.01-.02-.01h.02c2.28,1.9,4.8,3,6.86,2.98,2.04-.01,3.43-1.11,3.79-3Z"/>
    <path class="cls-6" d="m60.82,713.06l1.11,5.77c-.36,1.89-1.75,2.99-3.79,3-2.06.02-4.58-1.08-6.86-2.99h-.02c-.32-.57-.56-1.23-.7-1.96v-.02l-1.8-9.22.06-.02c-.15-.73-.19-1.52-.14-2.32v-.02l.02-.05c1.57-1.76,3.52-3.56,5.32-4.9,1.8-1.33,3.26-2.09,3.99-2.05l.35,1.8.03.03c.26.51.44,1.08.56,1.7h-.05s1.8,9.25,1.8,9.25v.02c.12.63.18,1.3.15,1.98h-.03Z"/>
    <path class="cls-7" d="m57.42,695.22l.59,3.06c-.73-.04-2.19.72-3.99,2.05-1.8,1.34-3.75,3.14-5.32,4.9l-.02.05v.02h-.04l-4.08,2.34,6.3-8.7,6.54-3.72h.02Z"/>
    <polygon class="cls-6" points="51.88 629.76 48.09 631.94 46.9 625.86 50.71 623.66 51.88 629.76"/>
    <path class="cls-8" d="m51.27,718.86v.06s-4.07,2.34-4.07,2.34l-2.64-13.62,4.08-2.34h.04c-.05.8-.01,1.59.14,2.32l-.06.02,1.8,9.22v.02c.14.73.38,1.39.7,1.97,0,0,0,.01,0,.01Z"/>
  </g>
  <g>
    <g>
      <path class="cls-13" d="m180.79,738.82l.57-.28,3.42-1.68,3.42-1.68,3.42-1.62,3.48-1.68,1.8-.84,1.74-.84,1.8-.78,1.74-.84,1.8-.84,1.8-.78,1.8-.84,1.86-.84,1.8-.78,1.8-.84,1.86-.78,1.86-.84,1.86-.78,1.86-.84,1.86-.78,1.86-.78,1.86-.78,1.92-.84,1.86-.78,1.92-.78,1.92-.78,1.92-.72,1.92-.78,1.98-.78,1.92-.78,1.98-.72,1.92-.78,1.98-.72,1.98-.72,1.98-.72,1.98-.72,2.04-.72,1.98-.72,2.04-.72,1.98-.66,2.04-.72,1.98-.66,2.04-.66,2.04-.66,2.04-.6,2.04-.66,2.04-.6,2.04-.66,2.1-.6,2.04-.54,2.04-.6,2.1-.54,2.04-.6,2.1-.54,2.1-.54,2.04-.48,2.1-.54,2.04-.48,2.1-.48,2.04-.42,2.1-.48,2.04-.42,2.04-.42,2.1-.42,2.04-.36,2.04-.36,2.04-.36,1.98-.36,2.04-.3,2.04-.3,1.98-.3,2.04-.3,1.98-.24,1.98-.24,1.98-.24,1.98-.24,2.04-.18,1.98-.18,1.98-.18,1.98-.12,1.98-.12,1.92-.12,1.98-.12,1.98-.06,1.98-.06,1.98-.06h1.98l1.92-.06,1.98.06h1.98l1.98.06,1.98.06,1.92.12,1.98.06,1.98.18,1.98.12,1.98.18,1.98.18,1.92.24,1.98.24,1.98.24,1.98.3,1.92.3,1.98.3,1.98.36,1.92.36,1.92.36,1.98.42,1.92.42,1.92.42,1.92.42,1.92.48,1.86.54,1.92.48,1.86.54,1.92.54,1.86.54,1.86.6,1.8.6,1.86.6,1.8.66,1.8.66,1.8.66,1.8.66,1.8.72,1.74.66,1.74.72,3.48,1.5,3.42,1.44,3.42,1.56,3.36,1.56,3.42,1.56,3.36,1.56,3.36,1.62,3.36,1.62,3.42,1.62,3.36,1.62,3.42,1.62,3.48,1.56,1.74.78,1.74.84,1.8.78,1.74.78,1.8.78,1.8.78,1.86.78,1.8.78,1.86.78,1.86.78,1.86.78,1.92.78,1.86.72,1.92.78,1.92.78,1.92.78,1.98.72,1.92.78,1.98.72,1.98.78,1.98.72,1.98.78,1.98.72,2.04.72,1.98.78,1.98.72,2.04.72,1.98.72,2.04.72,2.04.66,1.98.72,2.04.66,2.04.72,1.98.66,2.04.66,2.04.66,1.98.66,2.04.6,1.98.66,1.98.6,1.98.6,1.98.6,1.98.54,1.98.6,1.98.54,1.92.54,1.98.54,1.92.48,1.98.54,1.92.48,1.92.48,1.92.42,1.86.48,1.92.42,1.86.42,1.92.42,1.86.36,1.8.36,1.86.36,1.8.36,1.86.3,1.8.3,1.8.3,1.74.3,1.8.24,1.74.24,1.74.24,1.74.24,1.74.18,1.74.18,1.68.18,1.68.18,1.68.12,1.68.12,1.68.12,1.62.12,1.62.06,1.62.06,1.62.06,1.62.06,1.56.06h4.68l1.56-.06h1.5l1.5-.06,1.5-.06,1.5-.06,1.5-.12,1.5-.06,1.44-.12,1.44-.12,1.44-.18,2.88-.3,2.82-.3,2.76-.42,2.76-.42,2.7-.48,2.7-.54,2.64-.54,2.58-.6,2.58-.6,2.58-.66,2.52-.72,2.46-.72,2.52-.78,2.46-.78,2.4-.84,2.4-.84,2.4-.9,2.4-.9,2.34-.96,2.34-1.02,2.34-1.02,2.34-1.02,2.34-1.08,2.28-1.08,2.28-1.14,2.28-1.14,2.28-1.14,2.22-1.2,2.28-1.26,2.22-1.2,2.28-1.32,2.22-1.26,2.22-1.32,2.22-1.38,2.22-1.38,2.22-1.38,2.22-1.38,2.22-1.44,2.22-1.5,2.22-1.44,2.22-1.5,2.22-1.56,2.28-1.5,2.22-1.62,2.22-1.56,2.22-1.62,2.28-1.62,2.22-1.62,2.28-1.68,2.28-1.68,2.28-1.74,2.34-1.74,2.28-1.74,2.34-1.8,2.34-1.8,2.34-1.8,2.4-1.86,2.4-1.8,2.4-1.92,2.46-1.86,2.46-1.92,2.46-1.98,2.52-1.92,2.52-1.98,2.58-2.04,2.58-1.98,2.58-2.04,2.7-2.1,1.32-1.02,1.38-1.02,1.32-1.08,1.38-1.02,1.38-1.08,1.38-1.08,1.44-1.08,1.38-1.08,1.44-1.08,1.44-1.08,1.44-1.08,1.5-1.08,1.44-1.08,1.5-1.14,1.56-1.08,1.5-1.14,1.56-1.14,1.56-1.14,1.56-1.08,1.56-1.14,1.62-1.14,1.62-1.14,1.62-1.2,1.68-1.14,1.68-1.14,1.68-1.14,1.68-1.14,1.68-1.14,1.74-1.14,1.74-1.14,1.74-1.14,1.8-1.14,1.8-1.14,1.8-1.14.9-.6.9-.54.9-.54.96-.54.9-.6.9-.54.96-.54.9-.54.9-.54.96-.54.9-.54.9-.54.96-.48.9-.54.9-.54.96-.48.9-.54.9-.48.96-.48.9-.48.9-.48.9-.48.9-.48.9-.48.9-.42.9-.48.9-.42.84-.48,1.8-.84,1.68-.78,1.74-.84,1.68-.72,1.74-.78,1.68-.72,1.62-.66,1.68-.72,1.68-.6,1.62-.66,1.62-.6,1.62-.54,1.62-.54,1.62-.54,1.56-.54,1.56-.48,1.56-.42,1.56-.48,1.5-.42,1.5-.36,1.5-.36,1.5-.36,1.44-.36,1.38-.3,1.44-.3,1.38-.3,1.38-.24,1.38-.3,1.32-.18,1.32-.24,1.32-.18,1.32-.24,1.26-.12,1.26-.18,1.26-.18,1.26-.12,1.2-.12,1.26-.12,1.2-.12,1.14-.06,1.2-.06,1.14-.06,2.28-.12,2.22-.06,2.22-.06h4.26l2.1.06,2.04.12,1.98.12,1.98.12,1.92.18,1.92.24,1.86.18,1.8.24,1.8.3,1.24.17.56.07,1.74.3,1.74.36,1.68.3h.04c8.62,1.73,14.08,10.6,12.19,19.8s-10.41,15.25-19.04,13.51h-.03s-1.26-.25-1.26-.25l-1.32-.24-1.38-.24-1.32-.24-1.38-.24-1.44-.18-1.44-.24-1.44-.18-1.5-.12-1.5-.12-1.56-.12-1.62-.06-1.62-.06-1.68-.06-1.74.06h-1.8l-.9.06-.9.06-.96.06-.9.06-.96.06-1.02.12-.96.06-1.02.12-1.02.12-1.02.18-1.02.12-1.08.18-1.08.18-1.08.18-1.14.18-1.14.18-1.14.24-1.14.24-1.2.24-1.2.3-1.2.3-1.26.3-1.26.3-1.32.3-1.26.36-1.38.42-1.32.36-1.38.48-1.38.42-1.44.48-1.44.48-1.44.54-1.5.54-1.44.6-1.56.6-1.5.66-1.56.66-1.56.72-.78.36-.78.36-.84.36-.78.36-.84.42-.84.42-.78.42-.84.42-.9.42-.84.42-.84.42-.9.48-.84.48-.9.48-.9.42-.84.48-.9.54-.9.48-.9.48-.9.54-.9.48-.9.54-.9.54-.96.54-.9.54-.9.48-.9.54-.9.6-.9.54-.9.54-.84.54-.9.54-.9.54-.84.6-.9.54-.84.54-1.74,1.14-1.74,1.08-1.68,1.14-1.68,1.08-1.62,1.14-1.62,1.14-1.62,1.08-1.62,1.14-1.56,1.08-1.62,1.14-1.5,1.08-1.56,1.08-1.5,1.08-1.5,1.14-1.5,1.08-1.5,1.08-1.44,1.08-1.44,1.02-1.44,1.08-1.44,1.08-1.38,1.02-1.38,1.08-1.38,1.02-1.38,1.08-1.38,1.02-1.38,1.02-1.32,1.08-1.32,1.02-2.64,2.04-2.58,1.98-2.58,1.98-2.58,1.98-2.52,1.98-2.46,1.98-2.46,1.92-2.46,1.92-2.4,1.86-2.46,1.92-2.34,1.86-2.4,1.8-2.34,1.86-2.34,1.8-2.34,1.8-2.34,1.8-2.28,1.74-2.34,1.74-2.28,1.74-2.28,1.74-2.28,1.68-2.28,1.68-2.28,1.68-2.28,1.62-2.28,1.68-2.28,1.62-2.28,1.56-2.28,1.62-2.28,1.56-2.28,1.56-2.28,1.5-2.28,1.56-2.28,1.44-2.34,1.5-2.28,1.44-2.34,1.44-2.28,1.44-2.34,1.38-2.34,1.38-2.34,1.38-2.34,1.32-2.34,1.32-2.4,1.26-2.4,1.32-2.4,1.2-2.4,1.26-2.46,1.2-2.4,1.2-2.46,1.14-2.52,1.14-2.46,1.08-2.52,1.08-2.58,1.08-2.52,1.02-2.58,1.02-2.64.96-2.64.96-2.64.9-2.64.9-2.7.84-2.76.84-2.76.78-2.76.72-2.82.72-2.82.72-2.82.6-2.88.6-2.94.6-2.88.54-3,.48-2.94.42-3.06.42-3.06.36-3.06.3-3.06.24-3.18.24-1.56.12-1.62.06-1.56.06-1.62.06-1.62.06h-1.62l-1.62.06h-3.3l-1.68-.06h-1.62l-1.68-.06-1.68-.06-1.68-.06-1.74-.06-1.68-.12-1.68-.06-1.74-.12-1.74-.12-1.74-.18-1.74-.12-1.74-.18-1.74-.18-1.74-.24-1.8-.18-1.74-.24-1.8-.24-1.8-.24-1.8-.24-1.8-.3-1.8-.3-1.8-.3-1.86-.3-1.8-.36-1.86-.3-1.86-.36-1.86-.36-1.86-.42-1.86-.36-1.86-.42-1.86-.42-1.92-.42-1.86-.48-1.92-.42-1.86-.48-1.92-.48-1.92-.54-1.92-.48-1.92-.54-1.92-.48-1.98-.54-1.92-.6-1.92-.54-1.98-.54-1.92-.6-1.98-.6-1.92-.6-1.98-.6-1.98-.66-1.98-.6-1.92-.66-1.98-.6-1.98-.66-1.98-.66-1.98-.72-1.98-.66-1.98-.66-1.98-.72-1.98-.72-1.92-.66-1.98-.72-1.98-.72-1.98-.72-1.98-.72-1.92-.72-1.98-.72-1.92-.72-1.98-.78-1.92-.72-1.98-.72-1.92-.78-1.92-.72-1.92-.78-1.86-.78-1.92-.72-1.86-.78-1.86-.72-1.86-.78-1.8-.78-1.86-.78-1.8-.72-1.8-.78-1.74-.78-1.8-.78-1.74-.78-1.74-.72-1.74-.78-1.68-.78-1.74-.78-1.68-.78-1.68-.78-1.68-.78-3.36-1.62-3.3-1.56-3.3-1.56-3.3-1.56-3.24-1.56-3.3-1.5-3.3-1.56-3.36-1.44-3.36-1.44-3.36-1.44-3.36-1.38-3.42-1.32-3.42-1.26-1.74-.6-1.74-.6-1.74-.6-1.74-.54-1.74-.54-1.74-.54-1.8-.48-1.74-.48-1.8-.48-1.8-.42-1.8-.42-1.8-.36-1.8-.42-1.86-.3-1.8-.36-1.86-.3-1.86-.24-1.8-.24-1.86-.24-1.86-.18-1.86-.18-1.86-.18-1.86-.12-1.86-.12-1.86-.12-1.86-.06-1.86-.06h-1.86l-1.86-.06-1.92.06h-1.86l-1.86.06-1.86.06-1.92.06-1.86.12-1.86.12-1.92.12-1.86.18-1.92.18-1.86.18-1.92.18-1.92.24-1.98.24-1.92.24-1.92.3-1.98.3-1.92.3-1.98.3-1.98.36-1.98.36-1.98.42-1.98.36-1.98.42-2.04.42-1.98.42-2.04.48-1.98.48-2.04.48-2.04.54-2.04.48-1.98.54-2.04.6-2.04.54-2.04.6-1.98.54-2.04.6-2.04.66-1.98.6-2.04.66-1.98.6-1.98.66-1.98.66-1.98.66-1.98.72-1.98.66-1.92.72-1.98.66-1.92.72-1.92.72-1.92.72-1.92.72-1.92.78-1.92.72-1.92.72-1.86.78-1.92.72-1.86.78-1.86.78-1.86.72-1.8.78-1.86.78-1.86.78-1.8.78-1.8.78-1.8.78-1.8.78-1.8.78-1.74.84-1.8.78-1.74.78-1.8.78-1.74.84-1.74.78-1.74.78-1.68.84-1.74.78-3.42,1.62-3.36,1.62-3.3,1.62-3.3,1.62-3.3,1.62-.24.06-.18.12-.24.12-.24.06-.24.06-.3.06-.24.06-.24.06h-.24l-.3.06h-1.08l-.3-.06h-.24l-.3-.06-.3-.06-.3-.06-.24-.06-.3-.06-.3-.12-.3-.06-.3-.12-.3-.12-.3-.12-.3-.12-.3-.18-.3-.12-.3-.18-.3-.12-.3-.18-.3-.18-.3-.24-.3-.18-.3-.18-.3-.24-.3-.24-.3-.18-.3-.24-.24-.24-.3-.3-.3-.24-.3-.24-.24-.3-.3-.3-.3-.24-.24-.3-.3-.3-.24-.3-.3-.3-.24-.36-.24-.3-.24-.3-.3-.36-.24-.3-.24-.36-.24-.36-.18-.36-.24-.3-.24-.36-.18-.36-.24-.36-.18-.36-.24-.42-.18-.36-.18-.36-.18-.36-.18-.42-.18-.36-.18-.36-.12-.42-.18-.36-.12-.36-.18-.42-.12-.36-.12-.36-.12-.42-.12-.36-.12-.42-.06-.36-.12-.36-.06-.42-.06-.36-.06-.36-.12-.36v-.42l-.06-.36-.06-.36v-.36l-.06-.36v-2.1l.06-.3v-.36l.06-.3.06-.3.06-.3.06-.36.06-.24.06-.3.12-.3.06-.3.12-.24.12-.3.06-.24.12-.24.18-.3.12-.24.12-.18.18-.24.12-.24.18-.18.18-.24.12-.18.18-.18.18-.18.24-.18.18-.12.18-.18.24-.12.18-.12.24-.18.18-.06,2.79-1.4Z"/>
      <path class="cls-14" d="m175.15,708.29l1.53-.77,2.16-1.02,2.16-1.08,2.16-1.08,2.22-1.08,2.22-1.08,2.22-1.02,1.08-.54,1.14-.54,1.14-.54,1.14-.54,1.08-.54,1.14-.54,1.14-.54,1.14-.54,1.14-.48,1.14-.54,1.14-.54,1.2-.54,1.14-.54,1.14-.48,1.2-.54,1.14-.54,1.14-.54,1.2-.48,1.2-.54,1.14-.54,1.2-.54,1.2-.48,1.14-.54,1.2-.48,1.2-.54,1.2-.54,1.2-.48,1.2-.54,1.2-.48,1.2-.54,1.2-.48,1.2-.54,1.26-.48,1.2-.48,1.2-.54,1.26-.48,1.2-.48,1.26-.54,1.2-.48,1.26-.48,1.26-.48,1.2-.54,1.26-.48,1.26-.48,1.26-.48,1.26-.48,1.26-.48,1.26-.48,1.26-.48,1.26-.42,1.26-.48,1.32-.48,1.26-.48,1.26-.42,1.26-.48,1.32-.42,1.26-.48,1.32-.42,1.26-.48,1.26-.42,1.32-.42,1.32-.42,1.26-.48,1.32-.42,1.26-.42,1.32-.42,1.32-.36,1.26-.42,1.32-.42,1.32-.42,1.32-.36,1.32-.42,1.32-.36,1.32-.36,1.32-.42,1.32-.36,1.32-.36,1.32-.36,1.32-.36,1.32-.36,1.32-.36,1.32-.3,1.32-.36,1.32-.36,1.32-.3,1.32-.3,1.38-.36,1.32-.3,1.32-.3,1.32-.3,1.32-.3,1.32-.3,1.32-.24,1.32-.3,1.38-.24,1.32-.3,1.32-.24,1.32-.24,1.32-.24,1.32-.24,1.32-.24,1.32-.24,1.32-.24,1.32-.18,1.32-.24,1.32-.18,1.26-.18,1.32-.18,1.32-.18,1.32-.18,1.32-.18,1.32-.18,1.26-.12,1.32-.18,1.32-.12,1.32-.12,1.26-.12,1.32-.12,1.32-.12,1.32-.12,1.26-.06,1.32-.12,1.32-.06,1.26-.12,1.32-.06,1.32-.06,1.26-.06,1.32-.06h1.32l1.26-.06h2.64l1.26-.06h2.58l1.32.06h2.58l1.26.06,1.32.06h1.26l1.32.06,1.26.06,1.26.12,1.32.06,1.26.12,1.26.06,1.32.12,1.26.12,1.26.12,1.26.12,1.32.12,1.26.18,1.26.12,1.26.18,1.26.18,1.26.18,1.32.18,1.26.18,1.26.18,1.26.24,1.26.18,1.26.24,1.26.24,1.26.24,1.26.24,1.26.24,1.26.24,1.2.3,1.26.24,1.26.3,1.26.3,1.26.24,1.2.3,1.26.36,1.26.3,1.2.3,1.26.3,1.2.36,1.26.36,1.2.3,1.26.36,2.46.72,2.4.78,2.46.72,2.4.78,2.4.84,2.46.84,2.34.84,2.4.9,2.4.9,2.34.9,2.34.96,2.4.9,2.34.96,2.34,1.02,2.34.96,2.28,1.02,2.34,1.02,2.34,1.02,2.34,1.08,2.34,1.02,2.34,1.08,2.28,1.02,2.34,1.08,2.34,1.08,2.34,1.08,2.4,1.08,2.34,1.08,2.34,1.08,1.2.54,1.2.54,1.44.66,1.44.66,1.44.66,1.5.66,1.44.66,1.44.66,1.44.66,1.5.66,1.44.66,1.44.72,1.5.66,1.44.66,1.5.66,1.44.66,1.5.66,1.44.66,1.5.66,1.44.6,1.5.66,1.5.66,1.44.66,1.5.66,1.44.6,1.5.66,1.5.6,1.44.66,1.5.6,1.44.6,1.5.66,1.44.6,1.5.6,1.5.6,1.44.54,1.5.6,1.44.6,1.44.54,1.5.54,1.44.6,1.5.54,1.44.54,1.5.54,1.44.48,1.5.54,1.44.54,1.5.48,1.44.48,1.44.48,1.5.48,1.44.48,1.44.48,1.5.42,1.44.42,1.44.48,1.44.42,1.44.36,1.44.42,1.44.42,1.44.36,1.44.36,1.38.36,1.44.36,1.44.36,1.38.3,1.44.36,1.38.3,1.38.3,1.38.3,1.38.24,1.38.24,1.38.3,1.38.24,1.38.18,1.32.24,1.38.24,1.32.18,1.38.18,1.32.18,1.32.12,1.32.18,1.38.12,1.32.18,1.26.12,1.32.06,1.32.12,1.32.12,1.26.06,1.32.06,1.26.06,1.32.06,1.26.06h2.52l1.26.06h2.46l1.26-.06h1.26l1.2-.06,1.2-.06,1.26-.06,1.2-.06,1.2-.06,1.2-.06,1.2-.12,1.2-.06,1.14-.12,1.2-.12,1.2-.12,1.14-.12,1.2-.18,1.14-.12,1.14-.18,1.14-.18,1.2-.12,1.14-.18,1.14-.24,1.08-.18,1.14-.18,1.14-.24,1.08-.18,1.14-.24,1.08-.24,1.14-.24,1.08-.24,1.08-.24,1.08-.24,1.08-.3,1.08-.24,1.2-.3,1.2-.36,1.2-.3,1.2-.3,1.14-.36,1.2-.36,1.14-.36,1.2-.36,1.14-.36,1.14-.42,1.14-.36,1.14-.42,1.14-.42,1.14-.36,1.14-.42,1.14-.48,1.14-.42,1.08-.42,1.14-.48,1.08-.42,1.14-.48,1.08-.48,1.14-.48,1.08-.48,1.08-.48,1.08-.48,2.22-1.02,2.16-1.08,2.16-1.08,2.1-1.08,2.16-1.08,2.1-1.14,2.16-1.2,2.1-1.2,2.1-1.2,2.1-1.26,2.1-1.26,2.1-1.26,2.1-1.32,2.1-1.32,2.1-1.32,2.1-1.38,2.1-1.38,2.04-1.38,2.1-1.44,2.1-1.44,2.1-1.44,2.1-1.5,2.1-1.5,2.16-1.5,2.1-1.56,2.1-1.5,2.16-1.62,2.1-1.56,2.16-1.62,2.16-1.62,2.16-1.68,2.22-1.68,1.08-.84,1.08-.84,1.08-.84,1.14-.84,1.08-.9,1.14-.84,1.08-.84,1.14-.9,1.14-.9,1.08-.84,1.14-.9,1.14-.9,1.14-.9,1.14-.9,1.14-.9,1.14-.9,1.2-.9,1.14-.96,1.2-.9,1.14-.96,1.2-.9,1.2-.96,1.2-.96,1.2-.9,1.2-.96,1.2-.96,1.2-.96,1.26-1.02,1.2-.96,1.26-.96,1.26-.96,1.26-1.02,1.26-.96,1.32-1.02,1.26-1.02,1.32-.96,1.32-1.02,1.32-1.02,1.32-1.02,1.32-1.08,1.38-1.02,1.38-1.02,1.38-1.08,1.38-1.02,1.44-1.08,1.38-1.08,1.44-1.02,1.44-1.08.72-.54.78-.54.72-.54.72-.54.72-.54.78-.54.72-.54.78-.54.72-.54.78-.54.78-.54.72-.54.78-.54.78-.54.78-.54.78-.54.78-.54.78-.54.78-.54.78-.54.78-.54.84-.54.78-.54.78-.54.84-.54.78-.54.84-.54.84-.54.78-.54.84-.54.84-.54.84-.54.84-.54.84-.54.84-.54.9-.54.84-.54.84-.54.84-.54.9-.54.84-.54.84-.48.9-.54.84-.54.9-.48.84-.54.9-.48.84-.54.9-.48.9-.54.84-.48.9-.48.84-.48.9-.48.9-.48.84-.48.9-.48.9-.48.84-.48.9-.48.84-.42.9-.48.84-.42.9-.42.84-.48.84-.42.9-.42.84-.42.84-.36.84-.42.84-.42.84-.36.84-.42.84-.36.84-.36.84-.36.84-.36.84-.36.78-.36.84-.36.78-.3.84-.36.78-.3.84-.3.78-.36.84-.3.78-.3.78-.3.78-.3.78-.24.78-.3.78-.3.78-.24.78-.24.72-.3.78-.24.72-.24.78-.24.72-.24.78-.24.72-.18.72-.24.78-.24.72-.18.72-.24.72-.18.72-.18.66-.18.72-.18.72-.18.72-.18.66-.18.72-.18.66-.18.66-.18.72-.12,1.32-.3,1.32-.3,1.32-.24,1.32-.3,1.26-.18,1.26-.24,1.26-.24,1.2-.18,1.26-.18,1.2-.18,1.2-.18,1.2-.12,1.14-.12,1.2-.18,1.14-.06,1.14-.12,1.08-.12,1.14-.06,1.08-.06,1.08-.06,1.08-.06,1.08-.06,1.08-.06h1.02l1.08-.06h6l1.02.06h.96l.96.06.96.06.9.06.96.06.9.06.96.06.9.12.9.06.9.06.9.12.9.12.84.06.9.12.84.12.84.12.84.12.9.12.78.18.84.12.6.09.24.03.84.18,1.62.3,1.62.3,1.56.3v-.03c6.13,1.33,10.86,6.38,12.06,12.9,1.21,6.53-1.34,13.3-6.49,17.3v.06s-1.25-.17-1.25-.17l-1.8-.3-1.8-.24-1.86-.18-1.92-.24-1.92-.18-1.98-.12-1.98-.12-2.04-.12-2.1-.06h-4.26l-2.22.06-2.22.06-2.28.12-1.14.06-1.2.06-1.14.06-1.2.12-1.26.12-1.2.12-1.26.12-1.26.18-1.26.18-1.26.12-1.32.24-1.32.18-1.32.24-1.32.18-1.38.3-1.38.24-1.38.3-1.44.3-1.38.3-1.44.36-1.5.36-1.5.36-1.5.36-1.5.42-1.56.48-1.56.42-1.56.48-1.56.54-1.62.54-1.62.54-1.62.54-1.62.6-1.62.66-1.68.6-1.68.72-1.62.66-1.68.72-1.74.78-1.68.72-1.74.84-1.68.78-1.8.84-.84.48-.9.42-.9.48-.9.42-.9.48-.9.48-.9.48-.9.48-.9.48-.96.48-.9.48-.9.54-.96.48-.9.54-.9.54-.96.48-.9.54-.9.54-.96.54-.9.54-.9.54-.96.54-.9.54-.9.6-.96.54-.9.54-.9.54-.9.6-1.8,1.14-1.8,1.14-1.8,1.14-1.74,1.14-1.74,1.14-1.74,1.14-1.68,1.14-1.68,1.14-1.68,1.14-1.68,1.14-1.68,1.14-1.62,1.2-1.62,1.14-1.62,1.14-1.56,1.14-1.56,1.08-1.56,1.14-1.56,1.14-1.5,1.14-1.56,1.08-1.5,1.14-1.44,1.08-1.5,1.08-1.44,1.08-1.44,1.08-1.44,1.08-1.38,1.08-1.44,1.08-1.38,1.08-1.38,1.08-1.38,1.02-1.32,1.08-1.38,1.02-1.32,1.02-2.7,2.1-2.58,2.04-2.58,1.98-2.58,2.04-2.52,1.98-2.52,1.92-2.46,1.98-2.46,1.92-2.46,1.86-2.4,1.92-2.4,1.8-2.4,1.86-2.34,1.8-2.34,1.8-2.34,1.8-2.28,1.74-2.34,1.74-2.28,1.74-2.28,1.68-2.28,1.68-2.22,1.62-2.28,1.62-2.22,1.62-2.22,1.56-2.22,1.62-2.28,1.5-2.22,1.56-2.22,1.5-2.22,1.44-2.22,1.5-2.22,1.44-2.22,1.38-2.22,1.38-2.22,1.38-2.22,1.38-2.22,1.32-2.22,1.26-2.28,1.32-2.22,1.2-2.28,1.26-2.22,1.2-2.28,1.14-2.28,1.14-2.28,1.14-2.28,1.08-2.34,1.08-2.34,1.02-2.34,1.02-2.34,1.02-2.34.96-2.4.9-2.4.9-2.4.84-2.4.84-2.46.78-2.52.78-2.46.72-2.52.72-2.58.66-2.58.6-2.58.6-2.64.54-2.7.54-2.7.48-2.76.42-2.76.42-2.82.3-2.88.3-1.44.18-1.44.12-1.44.12-1.5.06-1.5.12-1.5.06-1.5.06-1.5.06h-1.5l-1.56.06h-4.68l-1.56-.06-1.62-.06-1.62-.06-1.62-.06-1.62-.06-1.62-.12-1.68-.12-1.68-.12-1.68-.12-1.68-.18-1.68-.18-1.74-.18-1.74-.18-1.74-.24-1.74-.24-1.74-.24-1.8-.24-1.74-.3-1.8-.3-1.8-.3-1.86-.3-1.8-.36-1.86-.36-1.8-.36-1.86-.36-1.92-.42-1.86-.42-1.92-.42-1.86-.48-1.92-.42-1.92-.48-1.92-.48-1.98-.54-1.92-.48-1.98-.54-1.92-.54-1.98-.54-1.98-.6-1.98-.54-1.98-.6-1.98-.6-1.98-.6-1.98-.66-2.04-.6-1.98-.66-2.04-.66-2.04-.66-1.98-.66-2.04-.72-2.04-.66-1.98-.72-2.04-.66-2.04-.72-1.98-.72-2.04-.72-1.98-.72-1.98-.78-2.04-.72-1.98-.72-1.98-.78-1.98-.72-1.98-.78-1.98-.72-1.92-.78-1.98-.72-1.92-.78-1.92-.78-1.92-.78-1.86-.72-1.92-.78-1.86-.78-1.86-.78-1.86-.78-1.8-.78-1.86-.78-1.8-.78-1.8-.78-1.74-.78-1.8-.78-1.74-.84-1.74-.78-3.48-1.56-3.42-1.62-3.36-1.62-3.42-1.62-3.36-1.62-3.36-1.62-3.36-1.56-3.42-1.56-3.36-1.56-3.42-1.56-3.42-1.44-3.48-1.5-1.74-.72-1.74-.66-1.8-.72-1.8-.66-1.8-.66-1.8-.66-1.8-.66-1.86-.6-1.8-.6-1.86-.6-1.86-.54-1.92-.54-1.86-.54-1.92-.48-1.86-.54-1.92-.48-1.92-.42-1.92-.42-1.92-.42-1.98-.42-1.92-.36-1.92-.36-1.98-.36-1.98-.3-1.92-.3-1.98-.3-1.98-.24-1.98-.24-1.92-.24-1.98-.18-1.98-.18-1.98-.12-1.98-.18-1.98-.06-1.92-.12-1.98-.06-1.98-.06h-1.98l-1.98-.06-1.92.06h-1.98l-1.98.06-1.98.06-1.98.06-1.98.12-1.92.12-1.98.12-1.98.12-1.98.18-1.98.18-2.04.18-1.98.24-1.98.24-1.98.24-1.98.24-2.04.3-1.98.3-2.04.3-2.04.3-1.98.36-2.04.36-2.04.36-2.04.36-2.1.42-2.04.42-2.04.42-2.1.48-2.04.42-2.1.48-2.04.48-2.1.54-2.04.48-2.1.54-2.1.54-2.04.6-2.1.54-2.04.6-2.04.54-2.1.6-2.04.66-2.04.6-2.04.66-2.04.6-2.04.66-2.04.66-1.98.66-2.04.72-1.98.66-2.04.72-1.98.72-2.04.72-1.98.72-1.98.72-1.98.72-1.98.72-1.92.78-1.98.72-1.92.78-1.98.78-1.92.78-1.92.72-1.92.78-1.92.78-1.86.78-1.92.84-1.86.78-1.86.78-1.86.78-1.86.84-1.86.78-1.86.84-1.86.78-1.8.84-1.8.78-1.86.84-1.8.84-1.8.78-1.8.84-1.74.84-1.8.78-1.74.84-1.8.84-3.48,1.68-3.42,1.62-3.42,1.68-3.42,1.68-.57.28-.45-.28-.48-.24-.42-.3-.48-.3-.48-.36-.42-.3-.48-.36-.42-.42-.48-.36-.42-.42-.42-.42-.42-.48-.42-.48-.42-.42-.42-.54-.36-.48-.42-.48-.36-.54-.36-.54-.36-.54-.3-.54-.36-.54-.3-.6-.3-.54-.3-.6-.24-.6-.24-.54-.24-.6-.24-.6-.24-.6-.18-.6-.18-.6-.18-.54-.12-.6-.12-.6-.12-.6-.12-.54-.06-.6-.06-.54-.06-.54v-2.16l.06-.48.06-.54.12-.48.06-.48.12-.42.12-.48.18-.42.18-.42.18-.36.18-.36.24-.36.18-.36.24-.3.3-.36.24-.24.3-.3.3-.24.3-.24.36-.18.3-.18,2.16-1.08.63-.31Z"/>
      <path class="cls-15" d="m972.11,557.79c1.17,6.48-1.34,13.19-6.43,17.18v.04l-.6-.09-.84-.12-.78-.18-.9-.12-.84-.12-.84-.12-.84-.12-.9-.12-.84-.06-.9-.12-.9-.12-.9-.06-.9-.06-.9-.12-.96-.06-.9-.06-.96-.06-.9-.06-.96-.06-.96-.06h-.96l-1.02-.06h-6l-1.08.06h-1.02l-1.08.06-1.08.06-1.08.06-1.08.06-1.08.06-1.14.06-1.08.12-1.14.12-1.14.06-1.2.18-1.14.12-1.2.12-1.2.18-1.2.18-1.26.18-1.2.18-1.26.24-1.26.24-1.26.18-1.32.3-1.32.24-1.32.3-1.32.3-.72.12-.66.18-.66.18-.72.18-.66.18-.72.18-.72.18-.72.18-.66.18-.72.18-.72.18-.72.24-.72.18-.78.24-.72.24-.72.18-.78.24-.72.24-.78.24-.72.24-.78.24-.72.3-.78.24-.78.24-.78.3-.78.3-.78.24-.78.3-.78.3-.78.3-.84.3-.78.36-.84.3-.78.3-.84.36-.78.3-.84.36-.78.36-.84.36-.84.36-.84.36-.84.36-.84.36-.84.42-.84.36-.84.42-.84.42-.84.36-.84.42-.9.42-.84.42-.84.48-.9.42-.84.42-.9.48-.84.42-.9.48-.84.48-.9.48-.9.48-.84.48-.9.48-.9.48-.84.48-.9.48-.84.48-.9.54-.9.48-.84.54-.9.48-.84.54-.9.48-.84.54-.9.54-.84.48-.84.54-.9.54-.84.54-.84.54-.84.54-.9.54-.84.54-.84.54-.84.54-.84.54-.84.54-.84.54-.78.54-.84.54-.84.54-.78.54-.84.54-.78.54-.78.54-.84.54-.78.54-.78.54-.78.54-.78.54-.78.54-.78.54-.78.54-.78.54-.78.54-.72.54-.78.54-.78.54-.72.54-.78.54-.72.54-.78.54-.72.54-.72.54-.72.54-.78.54-.72.54-1.44,1.08-1.44,1.02-1.38,1.08-1.44,1.08-1.38,1.02-1.38,1.08-1.38,1.02-1.38,1.02-1.32,1.08-1.32,1.02-1.32,1.02-1.32,1.02-1.32.96-1.26,1.02-1.32,1.02-1.26.96-1.26,1.02-1.26.96-1.26.96-1.2.96-1.26,1.02-1.2.96-1.2.96-1.2.96-1.2.9-1.2.96-1.2.96-1.2.9-1.14.96-1.2.9-1.14.96-1.2.9-1.14.9-1.14.9-1.14.9-1.14.9-1.14.9-1.14.9-1.08.84-1.14.9-1.14.9-1.08.84-1.14.84-1.08.9-1.14.84-1.08.84-1.08.84-1.08.84-2.22,1.68-2.16,1.68-2.16,1.62-2.16,1.62-2.1,1.56-2.16,1.62-2.1,1.5-2.1,1.56-2.16,1.5-2.1,1.5-2.1,1.5-2.1,1.44-2.1,1.44-2.1,1.44-2.04,1.38-2.1,1.38-2.1,1.38-2.1,1.32-2.1,1.32-2.1,1.32-2.1,1.26-2.1,1.26-2.1,1.26-2.1,1.2-2.1,1.2-2.16,1.2-2.1,1.14-2.16,1.08-2.1,1.08-2.16,1.08-2.16,1.08-2.22,1.02-1.08.48-1.08.48-1.08.48-1.14.48-1.08.48-1.14.48-1.08.42-1.14.48-1.08.42-1.14.42-1.14.48-1.14.42-1.14.36-1.14.42-1.14.42-1.14.36-1.14.42-1.14.36-1.2.36-1.14.36-1.2.36-1.14.36-1.2.3-1.2.3-1.2.36-1.2.3-1.08.24-1.08.3-1.08.24-1.08.24-1.08.24-1.14.24-1.08.24-1.14.24-1.08.18-1.14.24-1.14.18-1.08.18-1.14.24-1.14.18-1.2.12-1.14.18-1.14.18-1.14.12-1.2.18-1.14.12-1.2.12-1.2.12-1.14.12-1.2.06-1.2.12-1.2.06-1.2.06-1.2.06-1.26.06-1.2.06-1.2.06h-1.26l-1.26.06h-2.46l-1.26-.06h-2.52l-1.26-.06-1.32-.06-1.26-.06-1.32-.06-1.26-.06-1.32-.12-1.32-.12-1.32-.06-1.26-.12-1.32-.18-1.38-.12-1.32-.18-1.32-.12-1.32-.18-1.38-.18-1.32-.18-1.38-.24-1.32-.24-1.38-.18-1.38-.24-1.38-.3-1.38-.24-1.38-.24-1.38-.3-1.38-.3-1.38-.3-1.44-.36-1.38-.3-1.44-.36-1.44-.36-1.38-.36-1.44-.36-1.44-.36-1.44-.42-1.44-.42-1.44-.36-1.44-.42-1.44-.48-1.44-.42-1.5-.42-1.44-.48-1.44-.48-1.5-.48-1.44-.48-1.44-.48-1.5-.48-1.44-.54-1.5-.54-1.44-.48-1.5-.54-1.44-.54-1.5-.54-1.44-.6-1.5-.54-1.44-.54-1.44-.6-1.5-.6-1.44-.54-1.5-.6-1.5-.6-1.44-.6-1.5-.66-1.44-.6-1.5-.6-1.44-.66-1.5-.6-1.5-.66-1.44-.6-1.5-.66-1.44-.66-1.5-.66-1.5-.66-1.44-.6-1.5-.66-1.44-.66-1.5-.66-1.44-.66-1.5-.66-1.44-.66-1.5-.66-1.44-.72-1.44-.66-1.5-.66-1.44-.66-1.44-.66-1.44-.66-1.5-.66-1.44-.66-1.44-.66-1.44-.66-1.2-.54-1.2-.54-2.34-1.08-2.34-1.08-2.4-1.08-2.34-1.08-2.34-1.08-2.34-1.08-2.28-1.02-2.34-1.08-2.34-1.02-2.34-1.08-2.34-1.02-2.34-1.02-2.28-1.02-2.34-.96-2.34-1.02-2.34-.96-2.4-.9-2.34-.96-2.34-.9-2.4-.9-2.4-.9-2.34-.84-2.46-.84-2.4-.84-2.4-.78-2.46-.72-2.4-.78-2.46-.72-1.26-.36-1.2-.3-1.26-.36-1.2-.36-1.26-.3-1.2-.3-1.26-.3-1.26-.36-1.2-.3-1.26-.24-1.26-.3-1.26-.3-1.26-.24-1.2-.3-1.26-.24-1.26-.24-1.26-.24-1.26-.24-1.26-.24-1.26-.24-1.26-.18-1.26-.24-1.26-.18-1.26-.18-1.32-.18-1.26-.18-1.26-.18-1.26-.18-1.26-.12-1.26-.18-1.32-.12-1.26-.12-1.26-.12-1.26-.12-1.32-.12-1.26-.06-1.26-.12-1.32-.06-1.26-.12-1.26-.06-1.32-.06h-1.26l-1.32-.06-1.26-.06h-2.58l-1.32-.06h-2.58l-1.26.06h-2.64l-1.26.06h-1.32l-1.32.06-1.26.06-1.32.06-1.32.06-1.26.12-1.32.06-1.32.12-1.26.06-1.32.12-1.32.12-1.32.12-1.26.12-1.32.12-1.32.12-1.32.18-1.26.12-1.32.18-1.32.18-1.32.18-1.32.18-1.32.18-1.26.18-1.32.18-1.32.24-1.32.18-1.32.24-1.32.24-1.32.24-1.32.24-1.32.24-1.32.24-1.32.24-1.32.3-1.38.24-1.32.3-1.32.24-1.32.3-1.32.3-1.32.3-1.32.3-1.32.3-1.38.36-1.32.3-1.32.3-1.32.36-1.32.36-1.32.3-1.32.36-1.32.36-1.32.36-1.32.36-1.32.36-1.32.36-1.32.42-1.32.36-1.32.36-1.32.42-1.32.36-1.32.42-1.32.42-1.26.42-1.32.36-1.32.42-1.26.42-1.32.42-1.26.48-1.32.42-1.32.42-1.26.42-1.26.48-1.32.42-1.26.48-1.32.42-1.26.48-1.26.42-1.26.48-1.32.48-1.26.48-1.26.42-1.26.48-1.26.48-1.26.48-1.26.48-1.26.48-1.26.48-1.26.48-1.2.54-1.26.48-1.26.48-1.2.48-1.26.54-1.2.48-1.26.48-1.2.54-1.2.48-1.26.48-1.2.54-1.2.48-1.2.54-1.2.48-1.2.54-1.2.48-1.2.54-1.2.54-1.2.48-1.14.54-1.2.48-1.2.54-1.14.54-1.2.54-1.2.48-1.14.54-1.14.54-1.2.54-1.14.48-1.14.54-1.2.54-1.14.54-1.14.54-1.14.48-1.14.54-1.14.54-1.14.54-1.08.54-1.14.54-1.14.54-1.14.54-1.08.54-2.22,1.02-2.22,1.08-2.22,1.08-2.16,1.08-2.16,1.08-2.16,1.02-1.53.77-.45-.23-.48-.3-.42-.3-.48-.3-.48-.3-.42-.36-.48-.36-.42-.42-.48-.36-.42-.42-.42-.42-.42-.48-.42-.42-.42-.48-.42-.48-.36-.54-.36-.48-.42-.54-.36-.54-.3-.54-.36-.54-.3-.54-.36-.54-.3-.6-.24-.6-.3-.54-.24-.6-.24-.6-.24-.6-.18-.54-.24-.6-.18-.6-.12-.6-.18-.6-.12-.54-.12-.6-.06-.6-.12-.54-.06-.6v-.54l-.06-.54v-1.08l.06-.48v-.54l.06-.48.12-.48.06-.48.12-.48.12-.42.18-.42.18-.42.18-.42.18-.36.18-.36.24-.36.24-.3.3-.3.24-.3.3-.24.3-.24.3-.24.3-.18.36-.24,2.22-1.08.6-.3,1.68-.84,2.22-1.14,2.28-1.14,2.28-1.14,2.28-1.08,2.34-1.14,2.34-1.14,1.14-.6,1.2-.54,1.14-.54,1.2-.6,1.2-.54,1.14-.6,1.2-.54,1.2-.54,1.2-.6,1.2-.54,1.2-.6,1.2-.54,1.2-.54,1.2-.6,1.2-.54,1.26-.54,1.2-.6,1.26-.54,1.2-.54,1.2-.54,1.26-.6,1.26-.54,1.2-.54,1.26-.54,1.26-.54,1.26-.6,1.2-.54,1.26-.54,1.26-.54,1.26-.54,1.26-.54,1.26-.54,1.32-.54,1.26-.54,1.26-.54,1.32-.54,1.26-.54,1.26-.48,1.32-.54,1.26-.54,1.32-.54,1.32-.48,1.32-.54,1.26-.54,1.32-.48,1.32-.54,1.32-.48,1.32-.54,1.32-.48,1.32-.54,1.32-.48,1.32-.48,1.38-.48,1.32-.54,1.32-.48,1.38-.48,1.32-.48,1.32-.48,1.38-.42,1.32-.48,1.38-.48,1.32-.48,1.38-.42,1.38-.48,1.32-.42,1.38-.42,1.38-.48,1.32-.42,1.38-.42,1.38-.42,1.38-.42,1.38-.42,1.38-.42,1.38-.42,1.38-.36,1.38-.42,1.38-.36,1.38-.42,1.44-.36,1.38-.36,1.38-.36,1.38-.36,1.44-.36,1.38-.36,1.38-.36,1.44-.36,1.38-.3,1.38-.36,1.44-.3,1.38-.3,1.38-.3,1.44-.3,1.38-.3,1.44-.3,1.38-.3,1.38-.24,1.44-.3,1.38-.24,1.44-.24,1.38-.24,1.38-.24,1.44-.24,1.38-.24,1.38-.18,1.44-.24,1.38-.18,1.38-.18,1.44-.24,1.38-.18,1.38-.12,1.38-.18,1.38-.18,1.44-.12,1.38-.12,1.38-.18,1.38-.12,1.38-.06,1.44-.12,1.38-.12,1.38-.06,1.38-.12,1.38-.06,1.38-.06,1.44-.06,1.38-.06,1.38-.06h1.38l1.38-.06h8.28l1.38.06h1.38l1.38.06,1.38.06,1.32.06,1.38.06,1.38.06,1.38.06,1.38.12,1.32.06,1.38.12,1.38.12,1.32.12,1.38.12,1.32.12,1.38.18,1.32.12,1.38.18,1.32.18,1.38.18,1.32.18,1.32.18,1.38.18,1.32.24,1.32.18,1.32.24,1.38.24,1.32.24,1.32.24,1.32.24,1.32.24,1.38.24,1.32.3,1.32.3,2.64.54,2.64.6,2.64.66,2.64.66,2.64.66,2.58.72,2.64.72,2.64.72,2.58.78,2.58.84,2.64.78,2.58.84,2.58.9,2.58.84,2.64.9,2.58.96,2.52.96,2.58.96,2.58.96,2.58,1.02,2.58,1.02,2.58,1.02,2.58,1.02,2.58,1.08,2.58,1.08,2.52,1.08,1.32.54,1.26.54,1.32.6,1.26.54,1.32.54,1.26.6,1.32.54,1.26.6,1.32.54,1.26.6,1.32.54,1.26.6,1.32.6,1.26.54,1.32.6,1.26.6,1.32.54,1.26.6,1.32.6,1.32.6,1.26.6,1.26.54,1.32.6,1.26.6,1.32.6,1.26.6,1.26.6,1.32.6,1.26.6,1.26.6,1.32.6,1.26.6,1.26.6,1.26.6,1.32.6,1.26.66,1.26.6,1.26.6,1.26.54,1.26.6,1.26.6,1.26.6,1.26.6,1.26.6,1.26.6,1.26.54,1.26.6,1.26.54,1.26.6,1.26.54,1.26.6,1.26.54,1.26.54,1.26.6,1.2.54,1.26.54,1.26.48,1.26.54,1.26.54,1.26.48,1.26.54,1.26.48,1.26.48,1.2.54,1.26.48,1.26.42,1.26.48,1.26.48,1.26.42,1.26.48,1.2.42,1.26.42,1.26.42,1.26.36,1.2.42,1.26.36,1.26.42,1.2.36,1.26.36,1.2.36,1.26.3,1.2.36,1.26.3,1.2.3,1.2.3,1.2.3,1.2.24,1.26.3,1.2.24,1.14.24,1.2.24,1.2.24,1.2.18,1.2.18,1.14.18,1.2.18,1.2.18,1.14.18,1.2.12,1.14.18,1.14.12,1.14.12,1.2.06,1.14.12,1.14.12,1.14.06,1.14.06,1.14.06,1.08.06h1.14l1.08.06h1.14l1.08.06h2.22l1.08-.06h1.08l1.08-.06h1.08l1.08-.06,1.08-.06,1.08-.06,1.02-.06,1.08-.12,1.02-.06,1.08-.12,1.02-.06,1.08-.12,1.02-.12,1.02-.12,1.02-.18,1.02-.12,1.02-.12,1.02-.18,1.02-.18,1.02-.12.96-.18,1.02-.18.96-.18,1.02-.24.96-.18,1.02-.18.96-.24.96-.18.96-.24.96-.24.96-.24.96-.24,1.2-.3,1.14-.3,1.2-.3,1.14-.36,1.14-.36,1.2-.3,1.14-.36,1.14-.36,1.14-.42,1.14-.36,1.14-.42,1.08-.36,1.14-.42,1.14-.42,1.08-.42,1.14-.42,1.08-.48,1.14-.42,1.08-.48,1.08-.42,1.14-.48,1.08-.48,1.08-.48,1.08-.48,1.08-.54,1.08-.48,1.08-.54,1.08-.48,2.1-1.08,2.16-1.08,2.1-1.14,2.1-1.14,2.1-1.14,2.1-1.2,2.1-1.2,2.1-1.26,2.04-1.26,2.1-1.26,2.1-1.32,2.04-1.32,2.1-1.32,2.04-1.38,2.1-1.38,2.04-1.38,2.1-1.44,2.1-1.44,2.04-1.5,2.1-1.44,2.1-1.5,2.1-1.56,2.04-1.5,2.16-1.56,2.1-1.62,2.1-1.56,2.1-1.62,2.16-1.68,2.16-1.62,2.16-1.68,1.08-.84,1.08-.84,1.08-.84,1.08-.9,1.14-.84,1.08-.9,1.08-.84,1.14-.9,1.08-.84,1.14-.9,1.08-.9,1.14-.9,1.14-.9,1.14-.9,1.14-.9,1.14-.9,1.14-.96,1.14-.9,1.2-.9,1.14-.96,1.14-.96,1.2-.9,1.2-.96,1.2-.96,1.2-.96,1.2-.96,1.2-.96,1.2-.96,1.26-.96,1.2-1.02,1.26-.96,1.26-.96,1.26-1.02,1.26-1.02,1.26-1.02,1.32-.96,1.32-1.02,1.32-1.08,1.32-1.02,1.32-1.02,1.38-1.02,1.32-1.08,1.38-1.02,1.44-1.08,1.38-1.02,1.38-1.08,1.44-1.08,1.44-1.02.72-.54.72-.54.72-.54.78-.54.72-.54.72-.54.78-.54.72-.54.72-.54.78-.54.78-.54.72-.54.78-.54.78-.54.78-.54.72-.54.78-.54.78-.54.78-.54.84-.54.78-.54.78-.54.78-.54.84-.54.78-.54.84-.54.78-.54.84-.54.84-.54.78-.48.84-.54.84-.54.84-.54.84-.54.84-.54.84-.54.9-.54.84-.54.84-.48.84-.54.9-.54.84-.48.84-.54.9-.48.84-.54.9-.48.84-.54.9-.48.84-.48.9-.54.9-.48.84-.48.9-.48.9-.48.84-.48.9-.48.9-.42.84-.48.9-.48.9-.42.9-.48.84-.42.9-.42.84-.48.9-.42.84-.42.9-.42.84-.36.9-.42.84-.42.84-.36.84-.42.84-.36.84-.36.84-.36.84-.36.84-.36.84-.36.84-.36.84-.3.78-.36.84-.3.84-.36.78-.3.78-.3.84-.3.78-.3.78-.3.78-.24.78-.3.78-.3.78-.24.78-.24.72-.3.78-.24.78-.24.72-.24.78-.24.72-.24.72-.24.72-.18.72-.24.78-.18.72-.24.66-.18.72-.18.72-.24.72-.18.66-.18.72-.18.66-.18.72-.18.66-.12.66-.18,1.38-.3,1.32-.3,1.32-.3,1.26-.24,1.26-.24,1.26-.24,1.26-.24,1.26-.18,1.2-.24,1.2-.18,1.2-.18,1.2-.12,1.2-.18,1.14-.12,1.14-.12,1.14-.12,1.08-.12,1.14-.06,1.08-.12,1.08-.06,1.08-.06,1.08-.06,1.08-.06h1.02l1.02-.06h2.04l1.02-.06h1.98l1.02.06h.96l.96.06h.96l.96.06.9.06.96.06.9.06.96.06.9.06.9.06.9.12.84.06.9.12.9.06.84.12.84.12.9.12.84.12.84.12.84.12.84.12.78.12.84.18.78.12.38.07,1.24.23,1.62.3,1.56.36,1.5.36.02-.04c6.06,1.4,10.7,6.44,11.87,12.91Z"/>
      <path class="cls-11" d="m960.66,526.59c1.14,6.42-1.34,13.07-6.36,17.06v.02l-.38-.07-.78-.12-.84-.18-.78-.12-.84-.12-.84-.12-.84-.12-.84-.12-.9-.12-.84-.12-.84-.12-.9-.06-.9-.12-.84-.06-.9-.12-.9-.06-.9-.06-.96-.06-.9-.06-.96-.06-.9-.06-.96-.06h-.96l-.96-.06h-.96l-1.02-.06h-1.98l-1.02.06h-2.04l-1.02.06h-1.02l-1.08.06-1.08.06-1.08.06-1.08.06-1.08.12-1.14.06-1.08.12-1.14.12-1.14.12-1.14.12-1.2.18-1.2.12-1.2.18-1.2.18-1.2.24-1.26.18-1.26.24-1.26.24-1.26.24-1.26.24-1.32.3-1.32.3-1.38.3-.66.18-.66.12-.72.18-.66.18-.72.18-.66.18-.72.18-.72.24-.72.18-.66.18-.72.24-.78.18-.72.24-.72.18-.72.24-.72.24-.78.24-.72.24-.78.24-.78.24-.72.3-.78.24-.78.24-.78.3-.78.3-.78.24-.78.3-.78.3-.84.3-.78.3-.78.3-.84.36-.84.3-.78.36-.84.3-.84.36-.84.36-.84.36-.84.36-.84.36-.84.36-.84.36-.84.42-.84.36-.84.42-.9.42-.84.36-.9.42-.84.42-.9.42-.84.48-.9.42-.84.42-.9.48-.9.42-.9.48-.84.48-.9.42-.9.48-.84.48-.9.48-.9.48-.84.48-.9.48-.9.54-.84.48-.9.48-.84.54-.9.48-.84.54-.9.48-.84.54-.84.48-.9.54-.84.54-.84.48-.84.54-.9.54-.84.54-.84.54-.84.54-.84.54-.84.54-.84.54-.78.48-.84.54-.84.54-.78.54-.84.54-.78.54-.84.54-.78.54-.78.54-.78.54-.84.54-.78.54-.78.54-.78.54-.72.54-.78.54-.78.54-.78.54-.72.54-.78.54-.78.54-.72.54-.72.54-.78.54-.72.54-.72.54-.78.54-.72.54-.72.54-.72.54-1.44,1.02-1.44,1.08-1.38,1.08-1.38,1.02-1.44,1.08-1.38,1.02-1.32,1.08-1.38,1.02-1.32,1.02-1.32,1.02-1.32,1.08-1.32,1.02-1.32.96-1.26,1.02-1.26,1.02-1.26,1.02-1.26.96-1.26.96-1.2,1.02-1.26.96-1.2.96-1.2.96-1.2.96-1.2.96-1.2.96-1.2.96-1.2.9-1.14.96-1.14.96-1.2.9-1.14.9-1.14.96-1.14.9-1.14.9-1.14.9-1.14.9-1.14.9-1.08.9-1.14.9-1.08.84-1.14.9-1.08.84-1.08.9-1.14.84-1.08.9-1.08.84-1.08.84-1.08.84-2.16,1.68-2.16,1.62-2.16,1.68-2.1,1.62-2.1,1.56-2.1,1.62-2.16,1.56-2.04,1.5-2.1,1.56-2.1,1.5-2.1,1.44-2.04,1.5-2.1,1.44-2.1,1.44-2.04,1.38-2.1,1.38-2.04,1.38-2.1,1.32-2.04,1.32-2.1,1.32-2.1,1.26-2.04,1.26-2.1,1.26-2.1,1.2-2.1,1.2-2.1,1.14-2.1,1.14-2.1,1.14-2.16,1.08-2.1,1.08-1.08.48-1.08.54-1.08.48-1.08.54-1.08.48-1.08.48-1.08.48-1.14.48-1.08.42-1.08.48-1.14.42-1.08.48-1.14.42-1.08.42-1.14.42-1.14.42-1.08.36-1.14.42-1.14.36-1.14.42-1.14.36-1.14.36-1.2.3-1.14.36-1.14.36-1.2.3-1.14.3-1.2.3-.96.24-.96.24-.96.24-.96.24-.96.18-.96.24-1.02.18-.96.18-1.02.24-.96.18-1.02.18-.96.18-1.02.12-1.02.18-1.02.18-1.02.12-1.02.12-1.02.18-1.02.12-1.02.12-1.08.12-1.02.06-1.08.12-1.02.06-1.08.12-1.02.06-1.08.06-1.08.06-1.08.06h-1.08l-1.08.06h-1.08l-1.08.06h-2.22l-1.08-.06h-1.14l-1.08-.06h-1.14l-1.08-.06-1.14-.06-1.14-.06-1.14-.06-1.14-.12-1.14-.12-1.2-.06-1.14-.12-1.14-.12-1.14-.18-1.2-.12-1.14-.18-1.2-.18-1.2-.18-1.14-.18-1.2-.18-1.2-.18-1.2-.24-1.2-.24-1.14-.24-1.2-.24-1.26-.3-1.2-.24-1.2-.3-1.2-.3-1.2-.3-1.26-.3-1.2-.36-1.26-.3-1.2-.36-1.26-.36-1.2-.36-1.26-.42-1.26-.36-1.2-.42-1.26-.36-1.26-.42-1.26-.42-1.2-.42-1.26-.48-1.26-.42-1.26-.48-1.26-.48-1.26-.42-1.26-.48-1.2-.54-1.26-.48-1.26-.48-1.26-.54-1.26-.48-1.26-.54-1.26-.54-1.26-.48-1.26-.54-1.2-.54-1.26-.6-1.26-.54-1.26-.54-1.26-.6-1.26-.54-1.26-.6-1.26-.54-1.26-.6-1.26-.54-1.26-.6-1.26-.6-1.26-.6-1.26-.6-1.26-.6-1.26-.6-1.26-.54-1.26-.6-1.26-.6-1.26-.66-1.32-.6-1.26-.6-1.26-.6-1.26-.6-1.32-.6-1.26-.6-1.26-.6-1.32-.6-1.26-.6-1.26-.6-1.32-.6-1.26-.6-1.32-.6-1.26-.54-1.26-.6-1.32-.6-1.32-.6-1.26-.6-1.32-.54-1.26-.6-1.32-.6-1.26-.54-1.32-.6-1.26-.6-1.32-.54-1.26-.6-1.32-.54-1.26-.6-1.32-.54-1.26-.6-1.32-.54-1.26-.54-1.32-.6-1.26-.54-1.32-.54-2.52-1.08-2.58-1.08-2.58-1.08-2.58-1.02-2.58-1.02-2.58-1.02-2.58-1.02-2.58-.96-2.58-.96-2.52-.96-2.58-.96-2.64-.9-2.58-.84-2.58-.9-2.58-.84-2.64-.78-2.58-.84-2.58-.78-2.64-.72-2.64-.72-2.58-.72-2.64-.66-2.64-.66-2.64-.66-2.64-.6-2.64-.54-1.32-.3-1.32-.3-1.38-.24-1.32-.24-1.32-.24-1.32-.24-1.32-.24-1.38-.24-1.32-.24-1.32-.18-1.32-.24-1.38-.18-1.32-.18-1.32-.18-1.38-.18-1.32-.18-1.38-.18-1.32-.12-1.38-.18-1.32-.12-1.38-.12-1.32-.12-1.38-.12-1.38-.12-1.32-.06-1.38-.12-1.38-.06-1.38-.06-1.38-.06-1.32-.06-1.38-.06-1.38-.06h-1.38l-1.38-.06h-8.28l-1.38.06h-1.38l-1.38.06-1.38.06-1.44.06-1.38.06-1.38.06-1.38.12-1.38.06-1.38.12-1.44.12-1.38.06-1.38.12-1.38.18-1.38.12-1.44.12-1.38.18-1.38.18-1.38.12-1.38.18-1.44.24-1.38.18-1.38.18-1.44.24-1.38.18-1.38.24-1.44.24-1.38.24-1.38.24-1.44.24-1.38.24-1.44.3-1.38.24-1.38.3-1.44.3-1.38.3-1.44.3-1.38.3-1.38.3-1.44.3-1.38.36-1.38.3-1.44.36-1.38.36-1.38.36-1.44.36-1.38.36-1.38.36-1.38.36-1.44.36-1.38.42-1.38.36-1.38.42-1.38.36-1.38.42-1.38.42-1.38.42-1.38.42-1.38.42-1.38.42-1.32.42-1.38.48-1.38.42-1.32.42-1.38.48-1.38.42-1.32.48-1.38.48-1.32.48-1.38.42-1.32.48-1.32.48-1.38.48-1.32.48-1.32.54-1.38.48-1.32.48-1.32.48-1.32.54-1.32.48-1.32.54-1.32.48-1.32.54-1.32.48-1.26.54-1.32.54-1.32.48-1.32.54-1.26.54-1.32.54-1.26.48-1.26.54-1.32.54-1.26.54-1.26.54-1.32.54-1.26.54-1.26.54-1.26.54-1.26.54-1.26.54-1.2.54-1.26.6-1.26.54-1.26.54-1.2.54-1.26.54-1.26.6-1.2.54-1.2.54-1.26.54-1.2.6-1.26.54-1.2.54-1.2.6-1.2.54-1.2.54-1.2.6-1.2.54-1.2.6-1.2.54-1.2.54-1.14.6-1.2.54-1.2.6-1.14.54-1.2.54-1.14.6-2.34,1.14-2.34,1.14-2.28,1.08-2.28,1.14-2.28,1.14-2.22,1.14-1.68.84-.48-.24-.48-.3-.48-.24-.42-.36-.48-.3-.42-.36-.48-.36-.42-.36-.48-.42-.42-.42-.42-.42-.42-.42-.42-.48-.42-.48-.42-.48-.36-.48-.36-.54-.42-.48-.36-.54-.3-.54-.36-.54-.3-.6-.36-.54-.3-.6-.24-.54-.3-.6-.24-.6-.24-.54-.24-.6-.18-.6-.24-.6-.18-.6-.12-.54-.18-.6-.12-.6-.12-.6-.06-.54-.12-.6-.06-.54v-.54l-.06-.54v-1.08l.06-.54v-.48l.06-.54.12-.48.06-.48.12-.42.12-.42.18-.48.18-.36.18-.42.18-.36.18-.36.24-.36.24-.3.24-.36.3-.24.3-.3.3-.24.3-.24.3-.18.36-.18,2.34-1.2,2.34-1.2,2.34-1.2,2.4-1.2,2.4-1.2,2.4-1.2,2.4-1.2,2.46-1.2,2.4-1.2,2.46-1.2,1.26-.6,1.26-.6,1.2-.6,1.26-.6,1.26-.6,1.26-.6,1.26-.6,1.26-.6,1.26-.6,1.26-.6,1.26-.6,1.26-.6,1.26-.6,1.32-.6,1.26-.6,1.26-.6,1.32-.54,1.32-.6,1.26-.6,1.32-.6,1.26-.6,1.32-.6,1.32-.54,1.32-.6,1.32-.6,1.32-.54,1.32-.6,1.32-.6,1.32-.54,1.32-.6,1.32-.6,1.38-.54,1.32-.6,1.32-.54,1.38-.6,1.32-.54,1.38-.54,1.38-.6,1.32-.54,1.38-.54,1.38-.54,1.38-.6,1.38-.54,1.38-.54,1.38-.54,1.38-.54,1.38-.54,1.38-.48,1.44-.54,1.38-.54,1.38-.54,1.44-.48,1.38-.54,1.44-.48,1.38-.54,1.44-.48,1.38-.48,1.44-.48,1.44-.48,1.38-.48,1.44-.48,1.44-.48,1.44-.48,1.44-.42,1.38-.48,1.44-.42,1.5-.48,1.44-.42,1.44-.42,1.44-.42,1.44-.42,1.5-.42,1.44-.42,1.44-.42,1.5-.36,1.44-.42,1.5-.36,1.44-.36,1.5-.42,1.5-.36,1.44-.3,1.5-.36,1.5-.36,1.44-.36,1.5-.3,1.5-.3,1.5-.3,1.44-.36,1.5-.3,1.5-.24,1.5-.3,1.5-.3,1.5-.24,1.44-.24,1.5-.3,1.5-.24,1.5-.24,1.5-.18,1.5-.24,1.44-.24,1.5-.18,1.5-.18,1.5-.18,1.5-.18,1.44-.18,1.5-.18,1.5-.12,1.44-.18,1.5-.12,1.5-.12,1.44-.12,1.5-.12,1.5-.06,1.44-.12,1.5-.06,1.44-.06,1.5-.06,1.44-.06,1.5-.06,1.44-.06h1.5l1.44-.06h5.88l1.44.06h1.44l1.5.06,1.44.06h1.44l1.5.06,1.44.12,1.44.06,1.44.06,1.44.12,1.44.06,1.44.12,1.44.12,1.44.12,1.44.12,1.44.18,1.44.12,1.44.18,1.44.12,1.44.18,1.44.18,1.44.18,1.38.24,1.44.18,1.44.18,1.38.24,1.44.24,1.38.18,1.44.24,1.44.24,2.82.54,2.82.54,2.76.54,2.82.6,2.82.6,2.82.66,2.82.66,2.76.72,2.82.72,2.76.72,2.82.78,2.76.78,2.82.84,2.76.84,1.38.42,1.44.42,1.38.48,1.38.42,1.38.42,1.38.48,1.44.48,1.38.42,1.38.48,1.38.48,1.38.48,1.38.48,1.38.48,1.44.48,1.38.48,1.38.54,1.38.48,1.38.54,1.38.48,1.38.54,1.44.54,1.38.48,1.38.54,1.38.54,1.38.54,1.44.54,1.38.54,1.38.54,1.38.6,1.44.54,1.38.54,1.38.6,1.38.54,1.44.6,1.38.6,1.38.54,1.38.6,1.38.6,1.44.6,1.38.6,1.38.54,1.38.6,1.38.66,1.38.6,1.38.6,1.38.6,1.44.6,1.38.6,1.32.66,1.38.6,1.38.6,2.82,1.32,1.8.78,1.74.84,1.8.84,1.8.84,1.74.84,1.74.84,1.74.84,1.74.9,1.74.84,1.74.84,1.68.84,1.68.84,1.68.84,3.42,1.74,3.3,1.68,3.36,1.68,3.3,1.68,3.3,1.62,1.68.78,1.62.78,1.68.78,1.68.72,1.62.72,1.68.72,1.62.72,1.68.72,1.68.66,1.68.6,1.68.66,1.62.6,1.68.54,1.68.54,1.68.54,1.68.48,1.68.48,1.68.42,1.68.42,1.68.42,1.62.36,1.68.3,1.62.3,1.68.3,1.62.24,1.62.24,1.68.18,1.62.18,1.62.12,1.56.12,1.62.12,1.56.06,1.62.06h1.56l1.56.06,1.56-.06h1.5l1.56-.06,1.5-.12,1.5-.12,1.5-.06,1.5-.18,1.44-.12,1.5-.18,1.44-.18,1.44-.24,1.44-.24,1.44-.24,1.44-.24,1.38-.24,1.44-.3,1.38-.3,1.38-.3,1.38-.36,5.1-1.32,1.14-.3,1.14-.36,1.14-.36,1.14-.36,1.14-.36,1.14-.36,1.08-.42,1.14-.36,1.08-.42,1.14-.42,1.08-.42,1.14-.42,1.08-.42,1.08-.48,1.08-.42,1.08-.48,1.08-.48,1.08-.48,1.08-.48,1.08-.48,1.08-.48,1.08-.54,1.02-.48,1.08-.54,1.08-.54,1.02-.54,1.08-.54,1.02-.54,1.08-.6,2.1-1.14,2.04-1.14,2.1-1.2,2.1-1.2,2.04-1.26,2.1-1.26,2.04-1.26,2.04-1.32,2.1-1.32,2.04-1.38,2.04-1.32,2.04-1.38,2.1-1.44,2.04-1.44,2.04-1.44,2.1-1.44,2.04-1.5,2.04-1.5,2.1-1.56,2.1-1.56,2.04-1.56,2.1-1.56,2.1-1.62,2.1-1.62,2.16-1.68,2.1-1.62,2.16-1.68,1.02-.84,1.08-.9,1.08-.84,1.08-.84,1.08-.9,1.14-.84,1.08-.9,1.08-.84,1.08-.9,1.14-.9,1.08-.9,1.14-.9,1.08-.9,1.14-.9,1.14-.9,1.14-.9,1.14-.96,1.14-.9,1.14-.96,1.14-.9,1.2-.96,1.14-.96,1.2-.96,1.14-.96,1.2-.96,1.2-.96,1.2-.96,1.2-.96,1.2-.96,1.26-1.02,1.2-.96,1.26-1.02,1.26-.96,1.26-1.02,1.26-1.02,1.32-1.02,1.26-1.02,1.32-1.02,1.32-1.08,1.32-1.02,1.38-1.02,1.32-1.08,1.38-1.02,1.38-1.08,1.38-1.02,1.44-1.08,1.38-1.08,1.44-1.08.72-.48.72-.54.72-.54.72-.54.78-.54.72-.54.72-.54.72-.54.78-.54.72-.54.78-.54.72-.48.78-.54.78-.54.78-.54.72-.54.78-.54.78-.54.78-.54.78-.54.78-.54.84-.54.78-.54.78-.48.84-.54.78-.54.84-.54.78-.54.84-.54.84-.54.84-.54.84-.48.84-.54.84-.54.84-.54.84-.54.84-.48.84-.54.84-.48.9-.54.84-.48.84-.54.9-.48.84-.54.9-.48.84-.48.9-.48.84-.54.9-.48.84-.48.9-.48.9-.48.84-.42.9-.48.9-.48.84-.48.9-.42.9-.48.84-.42.9-.42.9-.48.84-.42.9-.42.84-.42.9-.42.84-.42.9-.36.84-.42.9-.36.84-.42.9-.36.84-.42.84-.36.84-.36.84-.36.84-.36.84-.36.84-.3.84-.36.84-.3.78-.36.84-.3.78-.3.84-.3.78-.3.78-.3.78-.3.84-.3.78-.3.78-.24.72-.3.78-.24.78-.24.78-.3.72-.24.78-.24.72-.24.72-.24.78-.18.72-.24.72-.24.72-.18.72-.24.72-.18.72-.18.66-.24.72-.18.66-.18.72-.18.66-.18.72-.18.66-.12.66-.18.66-.18.72-.12.66-.18,1.26-.3,1.32-.24,1.26-.3,1.26-.24,1.26-.24,1.26-.24,1.2-.18,1.2-.18,1.2-.18,1.2-.18,1.14-.18,1.2-.12,1.14-.12,1.14-.18,1.08-.06,1.14-.12,1.08-.12,1.08-.06,1.08-.06,1.08-.06,1.08-.06,1.02-.06,1.02-.06h1.02l1.02-.06h4.98l.96.06h.9l.96.06h.96l.9.06.96.06.9.06.9.06.9.06.9.12.9.06.84.06.9.12.84.12.9.06.84.12.84.12.84.12.84.12.84.12.78.12.84.18.78.12.84.12,1.56.3,1.56.36,1.56.3,1.56.36,1.5.36h.04c5.99,1.48,10.55,6.51,11.68,12.93Z"/>
      <path class="cls-12" d="m949.15,495.33c1.11,6.37-1.33,12.95-6.29,16.94l-1.66-.29-.84-.12-.78-.12-.84-.18-.78-.12-.84-.12-.84-.12-.84-.12-.84-.12-.84-.12-.9-.06-.84-.12-.9-.12-.84-.06-.9-.06-.9-.12-.9-.06-.9-.06-.9-.06-.96-.06-.9-.06h-.96l-.96-.06h-.9l-.96-.06h-4.98l-1.02.06h-1.02l-1.02.06-1.02.06-1.08.06-1.08.06-1.08.06-1.08.06-1.08.12-1.14.12-1.08.06-1.14.18-1.14.12-1.2.12-1.14.18-1.2.18-1.2.18-1.2.18-1.2.18-1.26.24-1.26.24-1.26.24-1.26.3-1.32.24-1.26.3-.66.18-.72.12-.66.18-.66.18-.66.12-.72.18-.66.18-.72.18-.66.18-.72.18-.66.24-.72.18-.72.18-.72.24-.72.18-.72.24-.72.24-.78.18-.72.24-.72.24-.78.24-.72.24-.78.3-.78.24-.78.24-.72.3-.78.24-.78.3-.84.3-.78.3-.78.3-.78.3-.84.3-.78.3-.84.3-.78.36-.84.3-.84.36-.84.3-.84.36-.84.36-.84.36-.84.36-.84.36-.84.42-.9.36-.84.42-.9.36-.84.42-.9.36-.84.42-.9.42-.84.42-.9.42-.84.42-.9.48-.9.42-.84.42-.9.48-.9.42-.84.48-.9.48-.9.48-.84.42-.9.48-.9.48-.84.48-.9.48-.84.54-.9.48-.84.48-.9.48-.84.54-.9.48-.84.54-.84.48-.9.54-.84.48-.84.54-.84.48-.84.54-.84.54-.84.54-.84.54-.84.48-.84.54-.84.54-.84.54-.78.54-.84.54-.78.54-.84.54-.78.48-.78.54-.84.54-.78.54-.78.54-.78.54-.78.54-.78.54-.72.54-.78.54-.78.54-.78.54-.72.48-.78.54-.72.54-.78.54-.72.54-.72.54-.72.54-.78.54-.72.54-.72.54-.72.54-.72.48-1.44,1.08-1.38,1.08-1.44,1.08-1.38,1.02-1.38,1.08-1.38,1.02-1.32,1.08-1.38,1.02-1.32,1.02-1.32,1.08-1.32,1.02-1.26,1.02-1.32,1.02-1.26,1.02-1.26,1.02-1.26.96-1.26,1.02-1.2.96-1.26,1.02-1.2.96-1.2.96-1.2.96-1.2.96-1.2.96-1.14.96-1.2.96-1.14.96-1.2.96-1.14.9-1.14.96-1.14.9-1.14.96-1.14.9-1.14.9-1.14.9-1.08.9-1.14.9-1.08.9-1.14.9-1.08.9-1.08.84-1.08.9-1.14.84-1.08.9-1.08.84-1.08.84-1.08.9-1.02.84-2.16,1.68-2.1,1.62-2.16,1.68-2.1,1.62-2.1,1.62-2.1,1.56-2.04,1.56-2.1,1.56-2.1,1.56-2.04,1.5-2.04,1.5-2.1,1.44-2.04,1.44-2.04,1.44-2.1,1.44-2.04,1.38-2.04,1.32-2.04,1.38-2.1,1.32-2.04,1.32-2.04,1.26-2.1,1.26-2.04,1.26-2.1,1.2-2.1,1.2-2.04,1.14-2.1,1.14-1.08.6-1.02.54-1.08.54-1.02.54-1.08.54-1.08.54-1.02.48-1.08.54-1.08.48-1.08.48-1.08.48-1.08.48-1.08.48-1.08.48-1.08.42-1.08.48-1.08.42-1.14.42-1.08.42-1.14.42-1.08.42-1.14.36-1.08.42-1.14.36-1.14.36-1.14.36-1.14.36-1.14.36-1.14.3-5.1,1.32-1.38.36-1.38.3-1.38.3-1.44.3-1.38.24-1.44.24-1.44.24-1.44.24-1.44.24-1.44.18-1.5.18-1.44.12-1.5.18-1.5.06-1.5.12-1.5.12-1.56.06h-1.5l-1.56.06-1.56-.06h-1.56l-1.62-.06-1.56-.06-1.62-.12-1.56-.12-1.62-.12-1.62-.18-1.68-.18-1.62-.24-1.62-.24-1.68-.3-1.62-.3-1.68-.3-1.62-.36-1.68-.42-1.68-.42-1.68-.42-1.68-.48-1.68-.48-1.68-.54-1.68-.54-1.68-.54-1.62-.6-1.68-.66-1.68-.6-1.68-.66-1.68-.72-1.62-.72-1.68-.72-1.62-.72-1.68-.72-1.68-.78-1.62-.78-1.68-.78-3.3-1.62-3.3-1.68-3.36-1.68-3.3-1.68-3.42-1.74-1.68-.84-1.68-.84-1.68-.84-1.74-.84-1.74-.84-1.74-.9-1.74-.84-1.74-.84-1.74-.84-1.8-.84-1.8-.84-1.74-.84-1.8-.78-2.82-1.32-1.38-.6-1.38-.6-1.32-.66-1.38-.6-1.44-.6-1.38-.6-1.38-.6-1.38-.6-1.38-.66-1.38-.6-1.38-.54-1.38-.6-1.44-.6-1.38-.6-1.38-.6-1.38-.54-1.38-.6-1.44-.6-1.38-.54-1.38-.6-1.38-.54-1.44-.54-1.38-.6-1.38-.54-1.38-.54-1.44-.54-1.38-.54-1.38-.54-1.38-.54-1.38-.48-1.44-.54-1.38-.54-1.38-.48-1.38-.54-1.38-.48-1.38-.54-1.38-.48-1.44-.48-1.38-.48-1.38-.48-1.38-.48-1.38-.48-1.38-.48-1.38-.42-1.44-.48-1.38-.48-1.38-.42-1.38-.42-1.38-.48-1.44-.42-1.38-.42-2.76-.84-2.82-.84-2.76-.78-2.82-.78-2.76-.72-2.82-.72-2.76-.72-2.82-.66-2.82-.66-2.82-.6-2.82-.6-2.76-.54-2.82-.54-2.82-.54-1.44-.24-1.44-.24-1.38-.18-1.44-.24-1.38-.24-1.44-.18-1.44-.18-1.38-.24-1.44-.18-1.44-.18-1.44-.18-1.44-.12-1.44-.18-1.44-.12-1.44-.18-1.44-.12-1.44-.12-1.44-.12-1.44-.12-1.44-.06-1.44-.12-1.44-.06-1.44-.06-1.44-.12-1.5-.06h-1.44l-1.44-.06-1.5-.06h-1.44l-1.44-.06h-5.88l-1.44.06h-1.5l-1.44.06-1.5.06-1.44.06-1.5.06-1.44.06-1.5.06-1.44.12-1.5.06-1.5.12-1.44.12-1.5.12-1.5.12-1.44.18-1.5.12-1.5.18-1.44.18-1.5.18-1.5.18-1.5.18-1.5.18-1.44.24-1.5.24-1.5.18-1.5.24-1.5.24-1.5.3-1.44.24-1.5.24-1.5.3-1.5.3-1.5.24-1.5.3-1.44.36-1.5.3-1.5.3-1.5.3-1.44.36-1.5.36-1.5.36-1.44.3-1.5.36-1.5.42-1.44.36-1.5.36-1.44.42-1.5.36-1.44.42-1.44.42-1.5.42-1.44.42-1.44.42-1.44.42-1.44.42-1.5.48-1.44.42-1.38.48-1.44.42-1.44.48-1.44.48-1.44.48-1.38.48-1.44.48-1.44.48-1.38.48-1.44.48-1.38.54-1.44.48-1.38.54-1.44.48-1.38.54-1.38.54-1.44.54-1.38.48-1.38.54-1.38.54-1.38.54-1.38.54-1.38.54-1.38.6-1.38.54-1.38.54-1.32.54-1.38.6-1.38.54-1.32.54-1.38.6-1.32.54-1.32.6-1.38.54-1.32.6-1.32.6-1.32.54-1.32.6-1.32.6-1.32.54-1.32.6-1.32.6-1.32.54-1.32.6-1.26.6-1.32.6-1.26.6-1.32.6-1.32.54-1.26.6-1.26.6-1.32.6-1.26.6-1.26.6-1.26.6-1.26.6-1.26.6-1.26.6-1.26.6-1.26.6-1.26.6-1.26.6-1.2.6-1.26.6-1.26.6-2.46,1.2-2.4,1.2-2.46,1.2-2.4,1.2-2.4,1.2-2.4,1.2-2.4,1.2-2.34,1.2-1.92.96-.42-.24-.48-.24-.48-.3-.42-.3-.48-.36-.48-.36-.42-.36-.42-.36-.48-.42-.42-.42-.42-.42-.42-.42-.42-.48-.42-.48-.42-.48-.36-.48-.36-.54-.42-.48-.36-.54-.3-.54-.36-.54-.3-.54-.36-.6-.3-.54-.24-.6-.3-.54-.24-.6-.24-.6-.24-.6-.18-.6-.24-.54-.18-.6-.12-.6-.18-.6-.12-.54-.12-.6-.06-.6-.12-.54-.06-.6v-.54l-.06-.54v-1.08l.06-.48v-.54l.06-.48.12-.48.06-.48.12-.48.12-.42.18-.42.12-.42.18-.36.24-.42.18-.36.24-.3.24-.36.24-.3.3-.3.24-.24.3-.24.3-.24.36-.24.3-.18s2.05-1.04,2.86-1.46l.32-.16,3.24-1.62,3.24-1.68,3.24-1.62,3.24-1.68,3.3-1.68,3.3-1.62,3.36-1.68,3.36-1.68,3.42-1.68,3.42-1.68,3.42-1.68,3.48-1.68,3.48-1.68,3.54-1.68,3.6-1.62,3.54-1.68,3.6-1.62,3.66-1.62,3.66-1.62,3.66-1.62,3.72-1.56,3.72-1.56,3.72-1.56,1.86-.78,1.92-.72,1.86-.78,1.92-.72,1.92-.72,1.86-.72,1.92-.72,1.92-.72,1.92-.72,1.92-.66,1.98-.66,1.92-.72,1.92-.66,1.98-.66,1.92-.6,1.98-.66,1.92-.6,1.98-.6,1.98-.6,1.98-.6,1.98-.6,1.98-.54,2.04-.6,1.98-.54,1.98-.48,2.04-.54,1.98-.48,2.04-.54,2.04-.48,1.98-.42,2.04-.48,2.04-.42,2.04-.42,1.98-.42,2.04-.36,2.04-.42,2.04-.36,2.04-.3,2.04-.36,2.04-.3,2.04-.3,2.1-.3,2.04-.3,2.04-.24,2.04-.24,2.04-.24,2.04-.18,2.1-.18,2.04-.18,2.04-.18,2.04-.18,2.04-.12,2.04-.12,2.1-.12,2.04-.06,2.04-.12,2.04-.06h2.04l1.98-.06h8.1l2.04.06,1.98.06,2.04.06,1.98.12,1.98.06,4.02.24,3.96.3,3.96.36,3.96.42,3.9.42,3.96.54,3.9.54,3.9.6,3.96.66,3.9.72,3.84.78,3.9.78,3.9.84,3.84.9,3.84.9,3.9.96,3.84,1.02,3.84,1.08,3.9,1.08,3.84,1.08,3.9,1.2,3.84,1.2,1.92.6,1.92.6,1.98.66,1.92.6,1.92.66,1.92.66,1.98.66,1.92.66,1.92.66,1.92.66,1.98.72,1.92.66,1.92.72,1.98.72,1.92.72,1.98.72,1.92.72,1.92.72,1.98.78,1.92.72,1.92.78,1.92.78,1.98.72,1.92.78,1.92.78,1.92.78,1.86.78,1.92.84,1.92.78,1.86.78,1.92.84,1.86.84,1.92.78,1.86.84,1.86.84,1.86.84,1.86.84,1.8.9,1.86.84,1.8.84,1.86.9,1.8.84,1.8.84,1.8.9,1.8.9,1.74.84,1.8.9,1.74.84,1.74.9,1.74.84,1.74.9,1.74.84,1.74.9,1.68.84,1.68.84,1.68.9,1.74.84,1.68.84,1.68.84,1.68.78,1.62.84,1.68.78,1.68.78,1.62.72,1.68.72,1.62.72,1.62.66,1.62.66,1.62.6,1.62.6,1.62.54,1.56.54,1.62.48,1.56.42,1.5.42,1.56.36,1.5.36,1.5.3,1.44.3,1.44.18,1.44.24,1.44.18,1.38.12,1.38.12,1.38.12,1.38.06h1.32l1.32.06,1.32-.06h1.32l1.32-.06,1.26-.06,1.32-.12,1.26-.12,1.26-.12,1.26-.12,1.2-.18,1.26-.18,1.26-.18,1.2-.24,1.2-.24,1.2-.24,2.4-.54,2.4-.6,2.34-.6,2.34-.72,2.28-.72,2.34-.78,2.22-.84,2.28-.84,2.28-.9,2.22-.96,2.22-.96,2.22-1.02,2.16-1.02,2.22-1.08,2.16-1.08,2.16-1.2,2.16-1.14,2.16-1.2,2.16-1.26,2.1-1.26,2.16-1.26,2.16-1.32,2.1-1.32,2.1-1.38,2.16-1.38,2.1-1.44,2.1-1.44,2.16-1.44,2.1-1.44,2.1-1.5,2.1-1.56,2.16-1.5,2.1-1.62,2.16-1.56,2.1-1.62,2.16-1.62,2.16-1.62,2.16-1.68,2.16-1.74,2.16-1.68,2.16-1.74,2.22-1.74,2.22-1.8,2.22-1.8,2.22-1.8,2.28-1.8,2.22-1.86,2.28-1.86,2.34-1.92,2.28-1.92,2.34-1.92,2.4-1.92,2.4-1.98,2.4-1.98,2.46-2.04,2.52-2.04,2.52-2.04,1.26-1.02,1.26-1.02,1.32-1.08,1.32-1.02,1.26-1.08,1.38-1.02,1.32-1.08,1.38-1.08,1.32-1.08,1.38-1.08,1.44-1.08,1.38-1.08,1.44-1.14,1.44-1.08,1.44-1.08,1.44-1.14,1.5-1.08,1.5-1.14,1.5-1.08,1.5-1.08,1.56-1.14,1.56-1.08,1.56-1.14,1.56-1.08,1.62-1.08,1.62-1.14,1.62-1.08,1.62-1.08,1.68-1.08,1.68-1.14,1.74-1.08,1.74-1.08,1.74-1.08,1.74-1.02,1.74-1.08,1.8-1.02,1.8-1.02,1.8-1.02,1.8-1.02.9-.54.96-.48.9-.48.9-.48.9-.48.96-.48.9-.48.96-.48.9-.48.9-.42.96-.48.9-.48.96-.42.9-.42.9-.48.9-.42.96-.42.9-.42.9-.42.9-.42.9-.42.9-.36.9-.42.9-.36,1.74-.78,1.74-.72,1.74-.66,1.68-.72,1.74-.66,1.68-.6,1.62-.6,1.62-.6,1.62-.6,1.62-.54,1.56-.48,1.5-.48,1.56-.48,1.5-.48,1.5-.42,1.44-.42,1.44-.42,1.44-.36,1.44-.36,1.38-.36,1.38-.3,1.32-.3,1.38-.3,1.32-.3,1.32-.24,1.26-.24,1.26-.24,1.26-.24,1.26-.18,1.26-.24,1.2-.12,1.2-.18,1.2-.18,1.2-.12,1.14-.12,1.14-.12,1.14-.12,1.14-.12,1.14-.06,2.16-.12,2.16-.12,2.1-.06,2.1-.06h2.04l1.98.06,1.98.06,1.92.06,1.86.12,1.86.12,1.86.18,1.8.18,1.74.24,1.74.24,1.74.24,1.68.3,1.68.3,1.62.3,1.62.3,1.62.36,1.56.36,1.56.36,1.56.36c5.92,1.54,10.39,6.57,11.49,12.93Z"/>
    </g>
    <g>
      <g class="cls-4">
        <polyline class="cls-2" points="947.77 518.52 944.84 517.83 943.2 517.51 941.73 517.17 933.24 515.81 932.15 515.73 929.93 515.46 923.75 515 920.79 514.93 919.99 514.88 915.31 514.88 914.14 514.94 913.27 514.94 906.23 515.39 900.62 515.98 891.31 517.53 889.89 517.86 888.71 518.07 881.04 519.94 880.13 520.25 876.9 521.16 875.73 521.53 874.68 521.82 862.51 526.15 861.52 526.59 858.45 527.79 848.34 532.32 834.65 539.39 833.63 540.03 831.17 541.37 830.15 542.01 829.43 542.39 808.46 555.87 805.33 558.09 796.55 564.42 788.33 570.64 786.91 571.8 784.35 573.73 776.53 579.97 765.69 588.62 745.15 605.28 744.13 606.03 738.77 610.36 728.13 618.6 715.49 628 705.06 635.21 696.75 640.61 690.42 644.48 684.14 648.04 675.37 652.64 666.47 656.68 665.5 657.05 664.31 657.58 658.49 659.78 657.5 660.1 656.27 660.56 650.33 662.43 642.5 664.46 638.1 665.4 630.72 666.64 627.58 667.02 626.23 667.13 624.42 667.33 623.02 667.39 619.91 667.63 618.16 667.7 616.76 667.7 615.1 667.76 613.44 667.7 611.79 667.69 608.43 667.56 603.45 667.19 599.97 666.8 596.58 666.3 591.39 665.36 584.45 663.66 580.93 662.66 575.68 660.97 568.79 658.35 560.38 654.69 555.3 652.31 552 650.69 523.17 636.3 517.92 633.82 516.08 633.02 507.93 629.3 502.18 626.83 499.67 625.68 498.21 625.1 492.71 622.74 491.25 622.16 488.55 621.01 487.05 620.42 485.75 619.86 482.85 618.74 481.55 618.18 473.39 615.01 470.54 613.98 469.19 613.45 467.72 612.93 466.43 612.43 464.96 611.91 463.67 611.41 454.13 608.11 451.28 607.2 449.93 606.73 447.08 605.86 445.82 605.42 432.03 601.4 423.82 599.27 418.29 597.98 410.02 596.26 401.72 594.74 400.26 594.55 397.52 594.08 394.52 593.7 393.26 593.48 389.16 592.97 387.62 592.84 386.28 592.67 384.74 592.54 383.4 592.37 377.85 591.91 376.3 591.84 374.97 591.73 371.98 591.6 370.65 591.49 369.36 591.44 367.81 591.43 364.98 591.32 363.43 591.31 362.09 591.26 356.43 591.26 354.88 591.32 353.49 591.32 344.87 591.67 343.32 591.79 341.92 591.85 336.19 592.31 334.64 592.5 333.24 592.61 324.51 593.67 321.46 594.16 320.05 594.33 317.25 594.78 314.24 595.33 312.8 595.56 309.71 596.17 308.31 596.4 307.02 596.66 305.46 597.04 301.08 597.92 296.56 599.01 293.86 599.62 290.87 600.41 289.45 600.75 287.89 601.2 286.5 601.53 273.66 605.3 272.16 605.82 270.81 606.21 259.62 609.98 258.12 610.56 256.8 611 255.3 611.58 253.98 612.02 249.72 613.66 248.43 614.11 241.71 616.74 240.24 617.37 236.29 618.94 234.78 619.59 232.21 620.62 228.06 622.41 226.81 622.9 224.11 624.12 222.88 624.63 220.15 625.86 218.92 626.37 216.19 627.61 214.96 628.11 187.17 641.17 170.34 649.53 163.36 653.11"/>
        <polyline class="cls-2" points="959.05 549.78 956.14 549.09 945.06 547.31 935.4 546.56 934.29 546.55 933.48 546.5 932.39 546.49 930.7 546.44 929.82 546.44 928.66 546.5 926.77 546.5 925.6 546.56 924.72 546.56 920.67 546.78 919.44 546.91 918.45 546.96 909.6 548.04 908.25 548.31 907.1 548.47 893.82 551.4 892.91 551.69 888.24 553.02 876.18 557.23 862.13 563.34 855.36 566.75 854.21 567.39 852.72 568.13 835.66 578.1 820.46 588.15 800.21 602.98 798.79 604.14 794.91 607.09 792.1 609.32 790.88 610.2 774.88 622.96 773.79 623.77 771.4 625.78 769.22 627.45 760.1 634.76 741.63 649.14 731.06 656.99 720.47 664.42 714.12 668.67 707.79 672.69 701.46 676.52 697.17 678.97 690.72 682.47 681.93 686.77 675.09 689.71 674.1 690.07 672.87 690.61 665.93 693.14 664.9 693.47 663.65 693.92 661.08 694.73 660.02 694.99 657.59 695.75 647.95 698.1 646.13 698.43 644.04 698.87 641.73 699.28 640.85 699.39 638.66 699.76 636.77 699.99 635.6 700.18 632.2 700.57 629.2 700.8 627.99 700.93 623.44 701.18 622.5 701.18 621.28 701.24 620.34 701.24 619.26 701.3 616.62 701.29 615.68 701.24 614.4 701.23 613.46 701.18 612.18 701.17 607.44 700.91 605.29 700.68 603.96 700.61 601.42 700.34 600.42 700.18 599.08 700.04 589.4 698.44 579.28 696.11 578.22 695.79 576.82 695.44 570.43 693.52 569.37 693.15 568.04 692.76 564.12 691.43 562.96 690.99 561.6 690.53 559.18 689.61 557.82 689.15 556.29 688.56 555.22 688.08 552.65 687.09 551.49 686.59 550.13 686.07 547.7 685.03 546.35 684.51 543.71 683.35 541.37 682.29 539.93 681.67 503.22 664.51 501.83 663.91 496.8 661.57 495.35 660.97 492.9 659.83 490.27 658.67 489.06 658.09 487.61 657.49 486.48 656.95 485.03 656.35 483.9 655.81 482.45 655.21 481.32 654.67 478.69 653.57 476.21 652.47 457.07 644.68 446.92 640.89 436.74 637.47 434.03 636.67 431.51 635.85 429.04 635.1 421.28 632.97 413.48 631.02 410.94 630.44 396.57 627.68 395.15 627.48 393.95 627.26 382.15 625.8 376.81 625.33 375.39 625.26 374.11 625.15 366.11 624.8 364.62 624.79 363.35 624.74 355.29 624.74 353.8 624.8 352.53 624.8 345.79 625.09 344.3 625.21 343.03 625.27 340.1 625.51 338.83 625.57 337.66 625.67 336.17 625.86 333.45 626.09 330.59 626.46 329.32 626.57 321.13 627.74 310.12 629.69 300.46 631.75 299 632.12 296.33 632.75 286.68 635.24 285.22 635.68 283.94 636.01 282.46 636.45 281.18 636.79 271.8 639.66 270.3 640.18 267.72 640.98 266.22 641.5 264.96 641.88 260.82 643.36 259.56 643.74 254.44 645.58 252.96 646.18 249.1 647.56 247.69 648.14 246.46 648.58 245.05 649.16 243.82 649.6 238.51 651.74 237.28 652.18 218.5 660.09 217.11 660.75 212.22 662.87 208.55 664.56 207.35 665.07 206.01 665.73 203.73 666.73 202.43 667.38 200.12 668.42 196.43 670.2 194.17 671.21 192.89 671.88 191.79 672.37 189.44 673.52 188.3 674.03 187.15 674.63 175.68 680.25 171.18 682.53 168.91 683.63"/>
        <polyline class="cls-2" points="970.62 581.03 958.63 578.99 957.64 578.91 955.27 578.65 948 578.12 946.91 578.11 945.22 578.06 940.32 578.06 931.95 578.46 929.58 578.71 928.68 578.76 927.5 578.93 924.18 579.32 919.45 580.07 910.65 581.84 897.3 585.62 896.35 586 894.33 586.66 884.97 590.29 873.54 595.53 872.45 596.13 870.89 596.88 858.83 603.47 857.81 604.11 857.09 604.49 856.07 605.13 855.35 605.51 829.46 622.47 809.45 637.24 804.04 641.48 802.83 642.36 789.1 653.2 784.41 656.83 783.16 657.88 782.07 658.69 780.82 659.74 767.29 670.29 766.09 671.28 759.54 676.28 753.04 681.22 744.43 687.56 729.68 697.8 725.34 700.65 716.85 705.92 712.56 708.5 706.15 712.13 703.86 713.37 695.13 717.76 686.03 721.78 679.01 724.52 677.98 724.85 675.59 725.72 674.56 726.05 673.31 726.5 667.19 728.39 664.91 728.96 663.59 729.35 653.24 731.71 646.2 732.95 645.14 733.06 642.74 733.43 635.45 734.23 634.37 734.28 633.05 734.41 625.54 734.78 624.4 734.78 623.14 734.84 620.32 734.83 619.18 734.78 616.54 734.77 609.91 734.46 607.38 734.23 605.93 734.15 599.12 733.41 594.93 732.84 592.31 732.38 590.85 732.18 589.26 731.9 587.98 731.63 585.12 731.12 575.13 728.81 564.74 726 563.39 725.55 560.36 724.68 551.43 721.74 548.6 720.7 545.61 719.66 542.44 718.49 541.11 717.94 538.06 716.81 535.23 715.66 530.74 713.9 524.64 711.34 523.31 710.73 521.77 710.11 500.9 700.89 499.54 700.21 453.89 679.53 451.52 678.56 449.23 677.56 447.01 676.65 444.54 675.72 442.25 674.78 435.2 672.12 428.16 669.66 425.89 668.92 423.35 668.17 421.03 667.42 413.82 665.37 410.03 664.44 407.86 663.86 406.52 663.6 404.11 663.03 402.69 662.75 401.63 662.48 394.32 661.09 392.94 660.89 391.8 660.67 384.41 659.62 383.03 659.49 381.9 659.32 373.19 658.57 371.75 658.49 370.61 658.39 368.27 658.28 366.89 658.27 364.42 658.16 361.73 658.15 360.53 658.1 358.18 658.1 356.8 658.16 354.28 658.16 352.9 658.22 351.69 658.22 346.71 658.45 345.33 658.57 344.12 658.63 342.7 658.75 341.55 658.81 333.9 659.51 322.37 661.04 320.93 661.29 319.73 661.46 310.7 663.1 309.24 663.42 307.98 663.64 306.58 663.96 305.36 664.18 294.95 666.59 292.21 667.33 290.99 667.61 283.28 669.71 281.86 670.16 279.32 670.85 277.9 671.3 276.68 671.63 272.68 672.92 271.46 673.25 267.79 674.44 266.4 674.96 262.66 676.17 261.24 676.7 260.05 677.08 258.66 677.6 257.47 677.98 256.14 678.48 254.98 678.87 251.04 680.34 249.88 680.73 241.3 684 239.96 684.59 236.38 685.98 233.85 687.02 232.66 687.48 231.4 688.04 226.63 689.98 225.34 690.56 224.24 691 222.94 691.58 221.83 692.02 189.74 706.7 174.6 714.15"/>
        <polyline class="cls-2" points="981.96 612.3 976.5 611.31 975.06 611.11 973.34 610.82 971.71 610.6 969.8 610.42 967.95 610.19 966.2 610.02 960.36 609.67 958.41 609.62 954.29 609.62 949.98 609.73 944.4 610.02 938.55 610.65 930.91 611.76 929.52 612.06 928.24 612.29 918.4 614.56 912.51 616.27 904.73 618.94 902.98 619.65 901.45 620.19 893.29 623.69 888.3 626.04 887.27 626.61 883.91 628.29 875.91 632.6 874.68 633.33 873.89 633.72 863.17 640.16 852.62 646.96 844.37 652.56 837.91 657.21 833.33 660.49 831.73 661.71 830.26 662.72 814.67 674.5 813.25 675.66 810.64 677.63 795.18 689.67 790.26 693.58 787.79 695.44 785.32 697.42 759.77 716.72 750.63 723.27 748.41 724.73 743.96 727.8 737.22 732.23 728.26 737.8 725.95 739.17 721.28 741.85 714.42 745.59 707.48 749.06 702.72 751.28 695.6 754.38 693.11 755.4 688.21 757.24 683.27 758.96 678.26 760.53 673.04 762.04 670.35 762.73 665.06 763.96 659.59 765.06 656.77 765.56 651.03 766.43 640.68 767.47 639.28 767.53 637.68 767.65 632.98 767.84 631.58 767.84 630.02 767.9 625.05 767.89 616.83 767.58 610.01 767.09 603.02 766.35 595.83 765.36 584.87 763.43 575.21 761.38 573.44 760.92 571.47 760.49 561.64 757.94 547.58 753.84 545.68 753.21 543.56 752.58 531.31 748.52 529.42 747.83 527.34 747.15 519.13 744.21 517.23 743.46 513.13 741.99 511.21 741.23 509.17 740.49 507.25 739.73 505.16 738.97 503.32 738.22 501.26 737.47 478.77 728.12 475.05 726.48 473.37 725.67 468.12 723.32 447.88 713.67 437.77 709.04 429.3 705.44 418.77 701.51 413.41 699.76 407.94 698.19 405.93 697.68 404.16 697.16 402.4 696.73 394.82 695.08 389.16 694.03 383.42 693.15 377.68 692.45 373.88 692.1 371.83 691.98 370 691.81 368.01 691.75 366.17 691.63 362.37 691.52 360.31 691.52 358.48 691.46 356.56 691.52 354.65 691.52 348.86 691.69 341.16 692.16 335.3 692.69 327.53 693.63 319.57 694.81 305.54 697.46 297.39 699.29 289.19 701.36 287.07 701.98 285.05 702.5 282.96 703.11 279 704.2 276.91 704.87 274.94 705.45 272.83 706.13 270.86 706.71 264.9 708.66 247.12 715 245.11 715.82 243.22 716.5 237.35 718.86 235.5 719.56 229.91 721.85 204.29 733.11 202.43 734 200.72 734.74 180.24 744.69"/>
        <path class="cls-2" d="m936.53,487.27l-6.17-1.41-6.39-1.16-5.03-.69-3.47-.34-3.56-.23-5.72-.18h-1.89l-4.06.12-5.28.29-6.61.74-5.99.93-9.01,1.87-8.37,2.27-7.52,2.39-8.06,2.98-1.78.76-1.67.63-1.61.67-9.64,4.32-1.02.54-6.3,3.09-6.25,3.33-7.11,4.03-8.53,5.23-1.7,1.15-4.8,3.16-12.33,8.72-12.81,9.78-4.17,3.36-1.23.91-1.32,1.12-5.07,4.07-17.01,13.9-9.19,7.62-19.83,15.8-10.9,8.2-2.09,1.45-2.04,1.51-4.35,3.05-6.5,4.41-6.39,4.1-2.3,1.41-6.51,3.83-2.25,1.25-2.11,1.11-2.31,1.28-4.43,2.18-4.58,2.13-4.59,1.98-2.39.94-4.65,1.73-4.7,1.52-2.6.79-4.88,1.23-6.39,1.33-3.95.57-5.34.5-2.82.13h-1.21l-1.43.07-1.43-.07h-1.42s-1.6-.08-1.6-.08l-4.33-.38-1.64-.21-1.34-.22-1.74-.23-6.33-1.4-4.97-1.41-6.67-2.37-3.38-1.38-8.55-3.85-1.52-.79-1.71-.8-5.22-2.58-1.62-.87-20.82-10.38-9.18-4.29-1.71-.86-7.26-3.28-2.01-.82-3.73-1.66-13.11-5.43-2.07-.75-3.78-1.53-15.41-5.77-15.35-5.29-15.33-4.81-11.52-3.22-3.77-1-11.44-2.72-3.81-.82-7.68-1.55-3.81-.7-7.71-1.24-7.71-1.06-7.78-.83-3.89-.35-3.88-.29-3.87-.23-2.06-.06-1.9-.12-5.91-.18h-7.95l-2.06.06h-1.97l-1.89.06-2.11.12-1.97.06-6.03.35-10.12.89-5.97.7-8.08,1.18-2.11.37-1.97.29-1.9.33-2.11.43-1.96.35-11.86,2.58-9.92,2.55-13.68,4.09-7.6,2.51-2.03.76-3.79,1.28-11.3,4.26-1.95.81-1.83.69-12.93,5.42-14.42,6.41-3.59,1.7-3.55,1.6-10.43,5-20.25,10.01-16.55,8.42c-.76.39-2.83,1.45-2.83,1.45"/>
      </g>
      <g class="cls-3">
        <path class="cls-5" d="m183.52,767.46l-.3-.24-.24-.24-.3-.3-.3-.24-.3-.24-.24-.3-.3-.3-.3-.24,22.12-10.81,12.43-5.81,5.14-2.25,1.93-.92,14.89-6.4,1.73-.67,3.95-1.64,1.74-.66,2.04-.84,3.71-1.4,2.05-.82,8.03-3.01,1.8-.6,2.1-.78,1.85-.62,2.11-.76,6.2-2.06,10.35-3.2,10.42-2.9,1.9-.45,2.18-.57,8.26-1.91,12.51-2.45,8.06-1.23,6.13-.76,7.87-.74,5.94-.37,5.96-.19h1.71l2.08-.06,2.01.06h2.03l4.03.14,5.9.39,5.9.57,5.83.77,2.23.36,1.62.33,2.35.4,1.65.39,1.95.39,3.9.92,5.73,1.55,5.52,1.72,5.42,1.87,3.56,1.31,3.62,1.4,3.5,1.44,10.42,4.47,3.23,1.53,3.43,1.56,21.35,10.11,4.97,2.26,1.87.78,6.84,3.01,3.79,1.55,3.42,1.46,5.76,2.28,3.56,1.46,2.04.78,1.75.71,3.97,1.47,3.71,1.42,17.52,6.36,4.09,1.36,1.85.68,3.7,1.23,2.2.67,1.75.6,2.06.63,1.85.62,7.58,2.33,4.08,1.14,1.74.54,12.95,3.41,2.1.47,1.68.43,12.51,2.64,2.07.34,1.61.33,13.81,2.07,1.99.2,1.57.22,3.14.33,1.91.13,1.57.17,3.14.21,1.87.08,1.5.1,9.73.29h2.94l1.8-.06h1.43l6.04-.23,7.5-.57,2.86-.28,2.86-.34,5.77-.81,2.79-.44,5.53-1.09,5.42-1.14,8.06-2.07,2.57-.73,5.17-1.59,5.06-1.72,5.05-1.84,4.84-1.94,7.3-3.12,4.71-2.16,4.68-2.31,4.67-2.4,2.4-1.31,2.27-1.2,4.46-2.51,6.81-4.02,11.24-7.08,15.59-10.72,20.37-15.15,23.74-18.43,5.1-4.05,24.49-18.71,5.71-4.14,3.26-2.4,13-9.07,16.37-10.37,3.21-1.85,3.15-1.81,14.5-7.51,7.37-3.26,6.37-2.44,6.17-2.02,4.37-1.24,10.38-2.35,10.54-1.54,7.22-.5h1.63l1.92-.07,5.68.22,5.03.41,1.85.24,1.24.2,1.7.23,21.41,3.86c-3.6,5.46-9.99,8.5-16.43,7.2h-.03s-1.26-.25-1.26-.25l-1.32-.24-1.38-.24-1.32-.24-1.38-.24-1.44-.18-1.44-.24-1.44-.18-1.5-.12-1.5-.12-1.56-.12-1.62-.06-1.62-.06-1.68-.06-1.74.06h-1.8l-.9.06-.9.06-.96.06-.9.06-.96.06-1.02.12-.96.06-1.02.12-1.02.12-1.02.18-1.02.12-1.08.18-1.08.18-1.08.18-1.14.18-1.14.18-1.14.24-1.14.24-1.2.24-1.2.3-1.2.3-1.26.3-1.26.3-1.32.3-1.26.36-1.38.42-1.32.36-1.38.48-1.38.42-1.44.48-1.44.48-1.44.54-1.5.54-1.44.6-1.56.6-1.5.66-1.56.66-1.56.72-.78.36-.78.36-.84.36-.78.36-.84.42-.84.42-.78.42-.84.42-.9.42-.84.42-.84.42-.9.48-.84.48-.9.48-.9.42-.84.48-.9.54-.9.48-.9.48-.9.54-.9.48-.9.54-.9.54-.96.54-.9.54-.9.48-.9.54-.9.6-.9.54-.9.54-.84.54-.9.54-.9.54-.84.6-.9.54-.84.54-1.74,1.14-1.74,1.08-1.68,1.14-1.68,1.08-1.62,1.14-1.62,1.14-1.62,1.08-1.62,1.14-1.56,1.08-1.62,1.14-1.5,1.08-1.56,1.08-1.5,1.08-1.5,1.14-1.5,1.08-1.5,1.08-1.44,1.08-1.44,1.02-1.44,1.08-1.44,1.08-1.38,1.02-1.38,1.08-1.38,1.02-1.38,1.08-1.38,1.02-1.38,1.02-1.32,1.08-1.32,1.02-2.64,2.04-2.58,1.98-2.58,1.98-2.58,1.98-2.52,1.98-2.46,1.98-2.46,1.92-2.46,1.92-2.4,1.86-2.46,1.92-2.34,1.86-2.4,1.8-2.34,1.86-2.34,1.8-2.34,1.8-2.34,1.8-2.28,1.74-2.34,1.74-2.28,1.74-2.28,1.74-2.28,1.68-2.28,1.68-2.28,1.68-2.28,1.62-2.28,1.68-2.28,1.62-2.28,1.56-2.28,1.62-2.28,1.56-2.28,1.56-2.28,1.5-2.28,1.56-2.28,1.44-2.34,1.5-2.28,1.44-2.34,1.44-2.28,1.44-2.34,1.38-2.34,1.38-2.34,1.38-2.34,1.32-2.34,1.32-2.4,1.26-2.4,1.32-2.4,1.2-2.4,1.26-2.46,1.2-2.4,1.2-2.46,1.14-2.52,1.14-2.46,1.08-2.52,1.08-2.58,1.08-2.52,1.02-2.58,1.02-2.64.96-2.64.96-2.64.9-2.64.9-2.7.84-2.76.84-2.76.78-2.76.72-2.82.72-2.82.72-2.82.6-2.88.6-2.94.6-2.88.54-3,.48-2.94.42-3.06.42-3.06.36-3.06.3-3.06.24-3.18.24-1.56.12-1.62.06-1.56.06-1.62.06-1.62.06h-1.62l-1.62.06h-3.3l-1.68-.06h-1.62l-1.68-.06-1.68-.06-1.68-.06-1.74-.06-1.68-.12-1.68-.06-1.74-.12-1.74-.12-1.74-.18-1.74-.12-1.74-.18-1.74-.18-1.74-.24-1.8-.18-1.74-.24-1.8-.24-1.8-.24-1.8-.24-1.8-.3-1.8-.3-1.8-.3-1.86-.3-1.8-.36-1.86-.3-1.86-.36-1.86-.36-1.86-.42-1.86-.36-1.86-.42-1.86-.42-1.92-.42-1.86-.48-1.92-.42-1.86-.48-1.92-.48-1.92-.54-1.92-.48-1.92-.54-1.92-.48-1.98-.54-1.92-.6-1.92-.54-1.98-.54-1.92-.6-1.98-.6-1.92-.6-1.98-.6-1.98-.66-1.98-.6-1.92-.66-1.98-.6-1.98-.66-1.98-.66-1.98-.72-1.98-.66-1.98-.66-1.98-.72-1.98-.72-1.92-.66-1.98-.72-1.98-.72-1.98-.72-1.98-.72-1.92-.72-1.98-.72-1.92-.72-1.98-.78-1.92-.72-1.98-.72-1.92-.78-1.92-.72-1.92-.78-1.86-.78-1.92-.72-1.86-.78-1.86-.72-1.86-.78-1.8-.78-1.86-.78-1.8-.72-1.8-.78-1.74-.78-1.8-.78-1.74-.78-1.74-.72-1.74-.78-1.68-.78-1.74-.78-1.68-.78-1.68-.78-1.68-.78-3.36-1.62-3.3-1.56-3.3-1.56-3.3-1.56-3.24-1.56-3.3-1.5-3.3-1.56-3.36-1.44-3.36-1.44-3.36-1.44-3.36-1.38-3.42-1.32-3.42-1.26-1.74-.6-1.74-.6-1.74-.6-1.74-.54-1.74-.54-1.74-.54-1.8-.48-1.74-.48-1.8-.48-1.8-.42-1.8-.42-1.8-.36-1.8-.42-1.86-.3-1.8-.36-1.86-.3-1.86-.24-1.8-.24-1.86-.24-1.86-.18-1.86-.18-1.86-.18-1.86-.12-1.86-.12-1.86-.12-1.86-.06-1.86-.06h-1.86l-1.86-.06-1.92.06h-1.86l-1.86.06-1.86.06-1.92.06-1.86.12-1.86.12-1.92.12-1.86.18-1.92.18-1.86.18-1.92.18-1.92.24-1.98.24-1.92.24-1.92.3-1.98.3-1.92.3-1.98.3-1.98.36-1.98.36-1.98.42-1.98.36-1.98.42-2.04.42-1.98.42-2.04.48-1.98.48-2.04.48-2.04.54-2.04.48-1.98.54-2.04.6-2.04.54-2.04.6-1.98.54-2.04.6-2.04.66-1.98.6-2.04.66-1.98.6-1.98.66-1.98.66-1.98.66-1.98.72-1.98.66-1.92.72-1.98.66-1.92.72-1.92.72-1.92.72-1.92.72-1.92.78-1.92.72-1.92.72-1.86.78-1.92.72-1.86.78-1.86.78-1.86.72-1.8.78-1.86.78-1.86.78-1.8.78-1.8.78-1.8.78-1.8.78-1.8.78-1.74.84-1.8.78-1.74.78-1.8.78-1.74.84-1.74.78-1.74.78-1.68.84-1.74.78-3.42,1.62-3.36,1.62-3.3,1.62-3.3,1.62-3.3,1.62-.24.06-.18.12-.24.12-.24.06-.24.06-.3.06-.24.06-.24.06h-.24l-.3.06h-1.08l-.3-.06h-.24l-.3-.06-.3-.06-.3-.06-.24-.06-.3-.06-.3-.12-.3-.06-.3-.12-.3-.12-.3-.12-.3-.12-.3-.18-.3-.12-.3-.18-.3-.12-.3-.18-.3-.18-.3-.24-.3-.18-.3-.18-.3-.24-.3-.24-.3-.18Z"/>
        <path class="cls-5" d="m173.02,731.64l10.9-5.5,10.74-5.12,1.62-.69,3.72-1.76,1.67-.73,7.5-3.4,1.74-.73,1.98-.89,1.73-.73,2-.89,13.55-5.66,1.79-.68,6.04-2.42,1.81-.66,2.09-.84,14.24-5.13,10.42-3.46,1.91-.57,2.17-.69,1.91-.57,2.24-.72,6.44-1.8,1.93-.5,2.21-.64,10.58-2.63,10.59-2.28,10.77-1.96,10.33-1.48,6.26-.75,6.27-.56,8.17-.5,6.24-.18h1.82l2.08-.07,2.13.07h2.13l4.28.14,1.76.11,2.42.09,1.84.17,2.12.13,4.3.4,6.14.75,6.17.95,6.1,1.14,8.09,1.76,2.29.58,1.68.48,2.1.54,5.92,1.7,5.89,1.93,7.48,2.75,5.52,2.2,7.09,3.02,13.75,6.33,16.77,8.03,22.97,10.04,9.31,3.74,2.15.79,1.75.71,2.05.75,1.86.74,2.1.77,1.86.73,4.15,1.49,1.85.73,7.7,2.76,2.26.73,1.81.66,2.12.69,3.85,1.32,5.89,1.92,2.21.66,1.85.62,5.68,1.72,2.11.58,1.85.56,13.13,3.47,2.14.48,1.68.43,12.48,2.59,13.64,2.07,8.03.8,6.26.4,6.25.23h4.28l1.76-.06h1.3l4.1-.16,1.7-.13,1.29-.05,2.45-.21,1.44-.18,5.46-.57,5.17-.79,2.48-.44,5.06-1.02,4.92-1.15,2.34-.59,4.71-1.37,4.69-1.47,4.56-1.59,4.56-1.71,2.09-.86,6.83-2.98,4.33-2.02,6.61-3.3,6.45-3.52,6.4-3.71,10.78-6.76,10.98-7.38,15.42-11.18,18.6-14.19,2.49-1.99,4.74-3.64,2.61-2.09,4.92-3.81,14.7-11.46,15.97-12.06,1.37-.96,4.81-3.54,6.19-4.39,1.86-1.36,13.89-9.3,11.31-7.05,17.17-9.52,9.05-4.39,8.98-3.83,1.47-.52,1.72-.7,1.93-.71,8.54-2.81,1.39-.37,3.5-1.01,10.76-2.47,1.17-.21,1.95-.39,9.47-1.37,6.48-.57,4.87-.25,4.71-.12h4.55l2.4.08,6.34.38,2.23.22,5.98.72,1.64.27,2.02.28,2.07.36,1.75.34c-1.03,3.54-3.13,6.73-6.07,9.02v.06s-1.25-.17-1.25-.17l-1.8-.3-1.8-.24-1.86-.18-1.92-.24-1.92-.18-1.98-.12-1.98-.12-2.04-.12-2.1-.06h-4.26l-2.22.06-2.22.06-2.28.12-1.14.06-1.2.06-1.14.06-1.2.12-1.26.12-1.2.12-1.26.12-1.26.18-1.26.18-1.26.12-1.32.24-1.32.18-1.32.24-1.32.18-1.38.3-1.38.24-1.38.3-1.44.3-1.38.3-1.44.36-1.5.36-1.5.36-1.5.36-1.5.42-1.56.48-1.56.42-1.56.48-1.56.54-1.62.54-1.62.54-1.62.54-1.62.6-1.62.66-1.68.6-1.68.72-1.62.66-1.68.72-1.74.78-1.68.72-1.74.84-1.68.78-1.8.84-.84.48-.9.42-.9.48-.9.42-.9.48-.9.48-.9.48-.9.48-.9.48-.96.48-.9.48-.9.54-.96.48-.9.54-.9.54-.96.48-.9.54-.9.54-.96.54-.9.54-.9.54-.96.54-.9.54-.9.6-.96.54-.9.54-.9.54-.9.6-1.8,1.14-1.8,1.14-1.8,1.14-1.74,1.14-1.74,1.14-1.74,1.14-1.68,1.14-1.68,1.14-1.68,1.14-1.68,1.14-1.68,1.14-1.62,1.2-1.62,1.14-1.62,1.14-1.56,1.14-1.56,1.08-1.56,1.14-1.56,1.14-1.5,1.14-1.56,1.08-1.5,1.14-1.44,1.08-1.5,1.08-1.44,1.08-1.44,1.08-1.44,1.08-1.38,1.08-1.44,1.08-1.38,1.08-1.38,1.08-1.38,1.02-1.32,1.08-1.38,1.02-1.32,1.02-2.7,2.1-2.58,2.04-2.58,1.98-2.58,2.04-2.52,1.98-2.52,1.92-2.46,1.98-2.46,1.92-2.46,1.86-2.4,1.92-2.4,1.8-2.4,1.86-2.34,1.8-2.34,1.8-2.34,1.8-2.28,1.74-2.34,1.74-2.28,1.74-2.28,1.68-2.28,1.68-2.22,1.62-2.28,1.62-2.22,1.62-2.22,1.56-2.22,1.62-2.28,1.5-2.22,1.56-2.22,1.5-2.22,1.44-2.22,1.5-2.22,1.44-2.22,1.38-2.22,1.38-2.22,1.38-2.22,1.38-2.22,1.32-2.22,1.26-2.28,1.32-2.22,1.2-2.28,1.26-2.22,1.2-2.28,1.14-2.28,1.14-2.28,1.14-2.28,1.08-2.34,1.08-2.34,1.02-2.34,1.02-2.34,1.02-2.34.96-2.4.9-2.4.9-2.4.84-2.4.84-2.46.78-2.52.78-2.46.72-2.52.72-2.58.66-2.58.6-2.58.6-2.64.54-2.7.54-2.7.48-2.76.42-2.76.42-2.82.3-2.88.3-1.44.18-1.44.12-1.44.12-1.5.06-1.5.12-1.5.06-1.5.06-1.5.06h-1.5l-1.56.06h-4.68l-1.56-.06-1.62-.06-1.62-.06-1.62-.06-1.62-.06-1.62-.12-1.68-.12-1.68-.12-1.68-.12-1.68-.18-1.68-.18-1.74-.18-1.74-.18-1.74-.24-1.74-.24-1.74-.24-1.8-.24-1.74-.3-1.8-.3-1.8-.3-1.86-.3-1.8-.36-1.86-.36-1.8-.36-1.86-.36-1.92-.42-1.86-.42-1.92-.42-1.86-.48-1.92-.42-1.92-.48-1.92-.48-1.98-.54-1.92-.48-1.98-.54-1.92-.54-1.98-.54-1.98-.6-1.98-.54-1.98-.6-1.98-.6-1.98-.6-1.98-.66-2.04-.6-1.98-.66-2.04-.66-2.04-.66-1.98-.66-2.04-.72-2.04-.66-1.98-.72-2.04-.66-2.04-.72-1.98-.72-2.04-.72-1.98-.72-1.98-.78-2.04-.72-1.98-.72-1.98-.78-1.98-.72-1.98-.78-1.98-.72-1.92-.78-1.98-.72-1.92-.78-1.92-.78-1.92-.78-1.86-.72-1.92-.78-1.86-.78-1.86-.78-1.86-.78-1.8-.78-1.86-.78-1.8-.78-1.8-.78-1.74-.78-1.8-.78-1.74-.84-1.74-.78-3.48-1.56-3.42-1.62-3.36-1.62-3.42-1.62-3.36-1.62-3.36-1.62-3.36-1.56-3.42-1.56-3.36-1.56-3.42-1.56-3.42-1.44-3.48-1.5-1.74-.72-1.74-.66-1.8-.72-1.8-.66-1.8-.66-1.8-.66-1.8-.66-1.86-.6-1.8-.6-1.86-.6-1.86-.54-1.92-.54-1.86-.54-1.92-.48-1.86-.54-1.92-.48-1.92-.42-1.92-.42-1.92-.42-1.98-.42-1.92-.36-1.92-.36-1.98-.36-1.98-.3-1.92-.3-1.98-.3-1.98-.24-1.98-.24-1.92-.24-1.98-.18-1.98-.18-1.98-.12-1.98-.18-1.98-.06-1.92-.12-1.98-.06-1.98-.06h-1.98l-1.98-.06-1.92.06h-1.98l-1.98.06-1.98.06-1.98.06-1.98.12-1.92.12-1.98.12-1.98.12-1.98.18-1.98.18-2.04.18-1.98.24-1.98.24-1.98.24-1.98.24-2.04.3-1.98.3-2.04.3-2.04.3-1.98.36-2.04.36-2.04.36-2.04.36-2.1.42-2.04.42-2.04.42-2.1.48-2.04.42-2.1.48-2.04.48-2.1.54-2.04.48-2.1.54-2.1.54-2.04.6-2.1.54-2.04.6-2.04.54-2.1.6-2.04.66-2.04.6-2.04.66-2.04.6-2.04.66-2.04.66-1.98.66-2.04.72-1.98.66-2.04.72-1.98.72-2.04.72-1.98.72-1.98.72-1.98.72-1.98.72-1.92.78-1.98.72-1.92.78-1.98.78-1.92.78-1.92.72-1.92.78-1.92.78-1.86.78-1.92.84-1.86.78-1.86.78-1.86.78-1.86.84-1.86.78-1.86.84-1.86.78-1.8.84-1.8.78-1.86.84-1.8.84-1.8.78-1.8.84-1.74.84-1.8.78-1.74.84-1.8.84-3.48,1.68-3.42,1.62-3.42,1.68-3.42,1.68-.57.28-.45-.28-.48-.24-.42-.3-.48-.3-.48-.36-.42-.3-.48-.36-.42-.42-.48-.36-.42-.42-.42-.42-.42-.48-.42-.48-.42-.42-.42-.54-.36-.48-.42-.48-.36-.54Z"/>
        <path class="cls-5" d="m167.38,701.1l5.03-2.62,2.06-.97,8.95-4.42,22.06-10.27,1.93-.82,2.82-1.29.91-.36,1.42-.65,2.02-.86,8.94-3.82,2.11-.83,1.55-.67,2.19-.86,2.73-1.13,2.24-.85,1.48-.65,16.97-6.3,1.05-.33,1.53-.57,1.05-.34,1.39-.52,9.6-3.16,1.05-.28,4.17-1.34,18.9-5.2,13.75-3.1,1.13-.2,1.5-.33,12.32-2.17,12.21-1.61,13.47-1.11,8.25-.31h10.86s11.95.64,11.95.64l6.92.66,13.12,1.88,8.12,1.56.92.23,1.43.28,10.52,2.55,2.17.64,2.62.71,2.8.82,2.26.73,2.6.77,2.61.85,7.41,2.6,7.42,2.81,2.2.9,2.55.96,2.54,1.04,2.24.98,2.52,1.04,46.23,20.94,1.22.61,28.99,12.64,8.49,3.35,1.89.7,1.22.5,12.69,4.44,9.7,3.04,1.63.41,3.95,1.1,12.15,2.88,10.36,1.77,8.64,1.01,1.53.08,3.46.27,5.95.23,8.2-.05,9.05-.56,5.63-.63,2.58-.39,1.53-.19,11.57-2.33,1.33-.35,1.8-.43,1.42-.41,2.11-.53,8.51-2.75,6.47-2.41,8.46-3.62,2.02-.93,8.28-4.17,3.97-2.18,4.06-2.32,8.13-4.94,8.18-5.25,8.14-5.57,10.39-7.44,17.08-12.94,1.32-1.08,13.32-10.4,1.37-1.13.97-.73,1.37-1.13,8.15-6.41,10.45-8.2,4.93-3.76,1.61-1.29,27.71-20.11,23.45-14.81,18.22-9.67,1.15-.53,3.05-1.45,14.02-5.71.91-.31,1.43-.53,17.48-5.08.93-.16,5.8-1.22,2.06-.34,2.85-.49,4.14-.6,7.37-.76,9.17-.43,8.6.08,9.04.67,10.2,1.45,3.62.84c-1.02,3.47-3.08,6.61-5.96,8.87v.04l-.6-.09-.84-.12-.78-.18-.9-.12-.84-.12-.84-.12-.84-.12-.9-.12-.84-.06-.9-.12-.9-.12-.9-.06-.9-.06-.9-.12-.96-.06-.9-.06-.96-.06-.9-.06-.96-.06-.96-.06h-.96l-1.02-.06h-6l-1.08.06h-1.02l-1.08.06-1.08.06-1.08.06-1.08.06-1.08.06-1.14.06-1.08.12-1.14.12-1.14.06-1.2.18-1.14.12-1.2.12-1.2.18-1.2.18-1.26.18-1.2.18-1.26.24-1.26.24-1.26.18-1.32.3-1.32.24-1.32.3-1.32.3-.72.12-.66.18-.66.18-.72.18-.66.18-.72.18-.72.18-.72.18-.66.18-.72.18-.72.18-.72.24-.72.18-.78.24-.72.24-.72.18-.78.24-.72.24-.78.24-.72.24-.78.24-.72.3-.78.24-.78.24-.78.3-.78.3-.78.24-.78.3-.78.3-.78.3-.84.3-.78.36-.84.3-.78.3-.84.36-.78.3-.84.36-.78.36-.84.36-.84.36-.84.36-.84.36-.84.36-.84.42-.84.36-.84.42-.84.42-.84.36-.84.42-.9.42-.84.42-.84.48-.9.42-.84.42-.9.48-.84.42-.9.48-.84.48-.9.48-.9.48-.84.48-.9.48-.9.48-.84.48-.9.48-.84.48-.9.54-.9.48-.84.54-.9.48-.84.54-.9.48-.84.54-.9.54-.84.48-.84.54-.9.54-.84.54-.84.54-.84.54-.9.54-.84.54-.84.54-.84.54-.84.54-.84.54-.84.54-.78.54-.84.54-.84.54-.78.54-.84.54-.78.54-.78.54-.84.54-.78.54-.78.54-.78.54-.78.54-.78.54-.78.54-.78.54-.78.54-.78.54-.72.54-.78.54-.78.54-.72.54-.78.54-.72.54-.78.54-.72.54-.72.54-.72.54-.78.54-.72.54-1.44,1.08-1.44,1.02-1.38,1.08-1.44,1.08-1.38,1.02-1.38,1.08-1.38,1.02-1.38,1.02-1.32,1.08-1.32,1.02-1.32,1.02-1.32,1.02-1.32.96-1.26,1.02-1.32,1.02-1.26.96-1.26,1.02-1.26.96-1.26.96-1.2.96-1.26,1.02-1.2.96-1.2.96-1.2.96-1.2.9-1.2.96-1.2.96-1.2.9-1.14.96-1.2.9-1.14.96-1.2.9-1.14.9-1.14.9-1.14.9-1.14.9-1.14.9-1.14.9-1.08.84-1.14.9-1.14.9-1.08.84-1.14.84-1.08.9-1.14.84-1.08.84-1.08.84-1.08.84-2.22,1.68-2.16,1.68-2.16,1.62-2.16,1.62-2.1,1.56-2.16,1.62-2.1,1.5-2.1,1.56-2.16,1.5-2.1,1.5-2.1,1.5-2.1,1.44-2.1,1.44-2.1,1.44-2.04,1.38-2.1,1.38-2.1,1.38-2.1,1.32-2.1,1.32-2.1,1.32-2.1,1.26-2.1,1.26-2.1,1.26-2.1,1.2-2.1,1.2-2.16,1.2-2.1,1.14-2.16,1.08-2.1,1.08-2.16,1.08-2.16,1.08-2.22,1.02-1.08.48-1.08.48-1.08.48-1.14.48-1.08.48-1.14.48-1.08.42-1.14.48-1.08.42-1.14.42-1.14.48-1.14.42-1.14.36-1.14.42-1.14.42-1.14.36-1.14.42-1.14.36-1.2.36-1.14.36-1.2.36-1.14.36-1.2.3-1.2.3-1.2.36-1.2.3-1.08.24-1.08.3-1.08.24-1.08.24-1.08.24-1.14.24-1.08.24-1.14.24-1.08.18-1.14.24-1.14.18-1.08.18-1.14.24-1.14.18-1.2.12-1.14.18-1.14.18-1.14.12-1.2.18-1.14.12-1.2.12-1.2.12-1.14.12-1.2.06-1.2.12-1.2.06-1.2.06-1.2.06-1.26.06-1.2.06-1.2.06h-1.26l-1.26.06h-2.46l-1.26-.06h-2.52l-1.26-.06-1.32-.06-1.26-.06-1.32-.06-1.26-.06-1.32-.12-1.32-.12-1.32-.06-1.26-.12-1.32-.18-1.38-.12-1.32-.18-1.32-.12-1.32-.18-1.38-.18-1.32-.18-1.38-.24-1.32-.24-1.38-.18-1.38-.24-1.38-.3-1.38-.24-1.38-.24-1.38-.3-1.38-.3-1.38-.3-1.44-.36-1.38-.3-1.44-.36-1.44-.36-1.38-.36-1.44-.36-1.44-.36-1.44-.42-1.44-.42-1.44-.36-1.44-.42-1.44-.48-1.44-.42-1.5-.42-1.44-.48-1.44-.48-1.5-.48-1.44-.48-1.44-.48-1.5-.48-1.44-.54-1.5-.54-1.44-.48-1.5-.54-1.44-.54-1.5-.54-1.44-.6-1.5-.54-1.44-.54-1.44-.6-1.5-.6-1.44-.54-1.5-.6-1.5-.6-1.44-.6-1.5-.66-1.44-.6-1.5-.6-1.44-.66-1.5-.6-1.5-.66-1.44-.6-1.5-.66-1.44-.66-1.5-.66-1.5-.66-1.44-.6-1.5-.66-1.44-.66-1.5-.66-1.44-.66-1.5-.66-1.44-.66-1.5-.66-1.44-.72-1.44-.66-1.5-.66-1.44-.66-1.44-.66-1.44-.66-1.5-.66-1.44-.66-1.44-.66-1.44-.66-1.2-.54-1.2-.54-2.34-1.08-2.34-1.08-2.4-1.08-2.34-1.08-2.34-1.08-2.34-1.08-2.28-1.02-2.34-1.08-2.34-1.02-2.34-1.08-2.34-1.02-2.34-1.02-2.28-1.02-2.34-.96-2.34-1.02-2.34-.96-2.4-.9-2.34-.96-2.34-.9-2.4-.9-2.4-.9-2.34-.84-2.46-.84-2.4-.84-2.4-.78-2.46-.72-2.4-.78-2.46-.72-1.26-.36-1.2-.3-1.26-.36-1.2-.36-1.26-.3-1.2-.3-1.26-.3-1.26-.36-1.2-.3-1.26-.24-1.26-.3-1.26-.3-1.26-.24-1.2-.3-1.26-.24-1.26-.24-1.26-.24-1.26-.24-1.26-.24-1.26-.24-1.26-.18-1.26-.24-1.26-.18-1.26-.18-1.32-.18-1.26-.18-1.26-.18-1.26-.18-1.26-.12-1.26-.18-1.32-.12-1.26-.12-1.26-.12-1.26-.12-1.32-.12-1.26-.06-1.26-.12-1.32-.06-1.26-.12-1.26-.06-1.32-.06h-1.26l-1.32-.06-1.26-.06h-2.58l-1.32-.06h-2.58l-1.26.06h-2.64l-1.26.06h-1.32l-1.32.06-1.26.06-1.32.06-1.32.06-1.26.12-1.32.06-1.32.12-1.26.06-1.32.12-1.32.12-1.32.12-1.26.12-1.32.12-1.32.12-1.32.18-1.26.12-1.32.18-1.32.18-1.32.18-1.32.18-1.32.18-1.26.18-1.32.18-1.32.24-1.32.18-1.32.24-1.32.24-1.32.24-1.32.24-1.32.24-1.32.24-1.32.24-1.32.3-1.38.24-1.32.3-1.32.24-1.32.3-1.32.3-1.32.3-1.32.3-1.32.3-1.38.36-1.32.3-1.32.3-1.32.36-1.32.36-1.32.3-1.32.36-1.32.36-1.32.36-1.32.36-1.32.36-1.32.36-1.32.42-1.32.36-1.32.36-1.32.42-1.32.36-1.32.42-1.32.42-1.26.42-1.32.36-1.32.42-1.26.42-1.32.42-1.26.48-1.32.42-1.32.42-1.26.42-1.26.48-1.32.42-1.26.48-1.32.42-1.26.48-1.26.42-1.26.48-1.32.48-1.26.48-1.26.42-1.26.48-1.26.48-1.26.48-1.26.48-1.26.48-1.26.48-1.26.48-1.2.54-1.26.48-1.26.48-1.2.48-1.26.54-1.2.48-1.26.48-1.2.54-1.2.48-1.26.48-1.2.54-1.2.48-1.2.54-1.2.48-1.2.54-1.2.48-1.2.54-1.2.54-1.2.48-1.14.54-1.2.48-1.2.54-1.14.54-1.2.54-1.2.48-1.14.54-1.14.54-1.2.54-1.14.48-1.14.54-1.2.54-1.14.54-1.14.54-1.14.48-1.14.54-1.14.54-1.14.54-1.08.54-1.14.54-1.14.54-1.14.54-1.08.54-2.22,1.02-2.22,1.08-2.22,1.08-2.16,1.08-2.16,1.08-2.16,1.02-1.53.77-.45-.23-.48-.3-.42-.3-.48-.3-.48-.3-.42-.36-.48-.36-.42-.42-.48-.36-.42-.42-.42-.42-.42-.48-.42-.42-.42-.48-.42-.48-.36-.54-.36-.48-.42-.54Z"/>
        <path class="cls-5" d="m163.3,672.6l-.42-.48-.36-.48-.36-.54-.42-.48,4.96-2.62,7.02-3.54,34.96-16.41,23.38-9.93,2.2-.85,1.7-.71,19.11-7.13,1.12-.34,4.28-1.52,19.59-6.05,1.18-.31,1.67-.49,14.37-3.63,14.36-2.94,16.28-2.51,1.16-.1,3.01-.39,2.57-.21,1.59-.2,1.82-.15,2.42-.16,1.77-.14,1.17-.05,1.6-.13,7.39-.31h1.16l1.6-.06h8.71s1.17.06,1.17.06h1.6s8.65.4,8.65.4l9.9.82,11.3,1.46,12.43,2.19,2.53.57,2.75.57,2.85.65,8.18,2.05,8.06,2.22,2.79.84,2.45.8,2.77.82,2.77.91,2.49.86,5.51,1.85,10.45,3.91,10.5,4.16,14.6,6.19,1.01.48,1.57.66,1.01.48,1.57.66,1.01.48,1.57.66,2.32,1.08,5.42,2.4,44.16,20.54,1.62.7,3.17,1.44,1.45.56,5.92,2.43,1.81.7.93.42,8.15,2.96,8.28,2.62,9.16,2.42,7.69,1.55,9.79,1.36,1.48.08,2.89.26,9.23.29,13.02-.78,5.5-.75,10.17-1.95,6.12-1.55,2.57-.79.91-.23,7.18-2.45,3.06-1.15,1.38-.59.84-.31,10.3-4.61,5.91-3.07,4.11-2.23,5.96-3.46,10.11-6.32,10.06-6.8,2.18-1.59,3.96-2.77,12.38-9.26,24.03-18.85,2.6-2.11.97-.73,2.51-2.09,9.39-7.41,1.41-1.18,8.77-6.84,4.25-3.33,1.18-.88,1.52-1.22,23.28-16.93,24.1-15.23,17.15-9.06,13.53-5.94,16.85-5.86,13.26-3.3,10.77-1.87,14.44-1.25,11.6.02,10.82.86,8.74,1.33,3.67.69.83.19c-1,3.51-3.05,6.7-5.94,9v.02l-.38-.07-.78-.12-.84-.18-.78-.12-.84-.12-.84-.12-.84-.12-.84-.12-.9-.12-.84-.12-.84-.12-.9-.06-.9-.12-.84-.06-.9-.12-.9-.06-.9-.06-.96-.06-.9-.06-.96-.06-.9-.06-.96-.06h-.96l-.96-.06h-.96l-1.02-.06h-1.98l-1.02.06h-2.04l-1.02.06h-1.02l-1.08.06-1.08.06-1.08.06-1.08.06-1.08.12-1.14.06-1.08.12-1.14.12-1.14.12-1.14.12-1.2.18-1.2.12-1.2.18-1.2.18-1.2.24-1.26.18-1.26.24-1.26.24-1.26.24-1.26.24-1.32.3-1.32.3-1.38.3-.66.18-.66.12-.72.18-.66.18-.72.18-.66.18-.72.18-.72.24-.72.18-.66.18-.72.24-.78.18-.72.24-.72.18-.72.24-.72.24-.78.24-.72.24-.78.24-.78.24-.72.3-.78.24-.78.24-.78.3-.78.3-.78.24-.78.3-.78.3-.84.3-.78.3-.78.3-.84.36-.84.3-.78.36-.84.3-.84.36-.84.36-.84.36-.84.36-.84.36-.84.36-.84.36-.84.42-.84.36-.84.42-.9.42-.84.36-.9.42-.84.42-.9.42-.84.48-.9.42-.84.42-.9.48-.9.42-.9.48-.84.48-.9.42-.9.48-.84.48-.9.48-.9.48-.84.48-.9.48-.9.54-.84.48-.9.48-.84.54-.9.48-.84.54-.9.48-.84.54-.84.48-.9.54-.84.54-.84.48-.84.54-.9.54-.84.54-.84.54-.84.54-.84.54-.84.54-.84.54-.78.48-.84.54-.84.54-.78.54-.84.54-.78.54-.84.54-.78.54-.78.54-.78.54-.84.54-.78.54-.78.54-.78.54-.72.54-.78.54-.78.54-.78.54-.72.54-.78.54-.78.54-.72.54-.72.54-.78.54-.72.54-.72.54-.78.54-.72.54-.72.54-.72.54-1.44,1.02-1.44,1.08-1.38,1.08-1.38,1.02-1.44,1.08-1.38,1.02-1.32,1.08-1.38,1.02-1.32,1.02-1.32,1.02-1.32,1.08-1.32,1.02-1.32.96-1.26,1.02-1.26,1.02-1.26,1.02-1.26.96-1.26.96-1.2,1.02-1.26.96-1.2.96-1.2.96-1.2.96-1.2.96-1.2.96-1.2.96-1.2.9-1.14.96-1.14.96-1.2.9-1.14.9-1.14.96-1.14.9-1.14.9-1.14.9-1.14.9-1.14.9-1.08.9-1.14.9-1.08.84-1.14.9-1.08.84-1.08.9-1.14.84-1.08.9-1.08.84-1.08.84-1.08.84-2.16,1.68-2.16,1.62-2.16,1.68-2.1,1.62-2.1,1.56-2.1,1.62-2.16,1.56-2.04,1.5-2.1,1.56-2.1,1.5-2.1,1.44-2.04,1.5-2.1,1.44-2.1,1.44-2.04,1.38-2.1,1.38-2.04,1.38-2.1,1.32-2.04,1.32-2.1,1.32-2.1,1.26-2.04,1.26-2.1,1.26-2.1,1.2-2.1,1.2-2.1,1.14-2.1,1.14-2.1,1.14-2.16,1.08-2.1,1.08-1.08.48-1.08.54-1.08.48-1.08.54-1.08.48-1.08.48-1.08.48-1.14.48-1.08.42-1.08.48-1.14.42-1.08.48-1.14.42-1.08.42-1.14.42-1.14.42-1.08.36-1.14.42-1.14.36-1.14.42-1.14.36-1.14.36-1.2.3-1.14.36-1.14.36-1.2.3-1.14.3-1.2.3-.96.24-.96.24-.96.24-.96.24-.96.18-.96.24-1.02.18-.96.18-1.02.24-.96.18-1.02.18-.96.18-1.02.12-1.02.18-1.02.18-1.02.12-1.02.12-1.02.18-1.02.12-1.02.12-1.08.12-1.02.06-1.08.12-1.02.06-1.08.12-1.02.06-1.08.06-1.08.06-1.08.06h-1.08l-1.08.06h-1.08l-1.08.06h-2.22l-1.08-.06h-1.14l-1.08-.06h-1.14l-1.08-.06-1.14-.06-1.14-.06-1.14-.06-1.14-.12-1.14-.12-1.2-.06-1.14-.12-1.14-.12-1.14-.18-1.2-.12-1.14-.18-1.2-.18-1.2-.18-1.14-.18-1.2-.18-1.2-.18-1.2-.24-1.2-.24-1.14-.24-1.2-.24-1.26-.3-1.2-.24-1.2-.3-1.2-.3-1.2-.3-1.26-.3-1.2-.36-1.26-.3-1.2-.36-1.26-.36-1.2-.36-1.26-.42-1.26-.36-1.2-.42-1.26-.36-1.26-.42-1.26-.42-1.2-.42-1.26-.48-1.26-.42-1.26-.48-1.26-.48-1.26-.42-1.26-.48-1.2-.54-1.26-.48-1.26-.48-1.26-.54-1.26-.48-1.26-.54-1.26-.54-1.26-.48-1.26-.54-1.2-.54-1.26-.6-1.26-.54-1.26-.54-1.26-.6-1.26-.54-1.26-.6-1.26-.54-1.26-.6-1.26-.54-1.26-.6-1.26-.6-1.26-.6-1.26-.6-1.26-.6-1.26-.6-1.26-.54-1.26-.6-1.26-.6-1.26-.66-1.32-.6-1.26-.6-1.26-.6-1.26-.6-1.32-.6-1.26-.6-1.26-.6-1.32-.6-1.26-.6-1.26-.6-1.32-.6-1.26-.6-1.32-.6-1.26-.54-1.26-.6-1.32-.6-1.32-.6-1.26-.6-1.32-.54-1.26-.6-1.32-.6-1.26-.54-1.32-.6-1.26-.6-1.32-.54-1.26-.6-1.32-.54-1.26-.6-1.32-.54-1.26-.6-1.32-.54-1.26-.54-1.32-.6-1.26-.54-1.32-.54-2.52-1.08-2.58-1.08-2.58-1.08-2.58-1.02-2.58-1.02-2.58-1.02-2.58-1.02-2.58-.96-2.58-.96-2.52-.96-2.58-.96-2.64-.9-2.58-.84-2.58-.9-2.58-.84-2.64-.78-2.58-.84-2.58-.78-2.64-.72-2.64-.72-2.58-.72-2.64-.66-2.64-.66-2.64-.66-2.64-.6-2.64-.54-1.32-.3-1.32-.3-1.38-.24-1.32-.24-1.32-.24-1.32-.24-1.32-.24-1.38-.24-1.32-.24-1.32-.18-1.32-.24-1.38-.18-1.32-.18-1.32-.18-1.38-.18-1.32-.18-1.38-.18-1.32-.12-1.38-.18-1.32-.12-1.38-.12-1.32-.12-1.38-.12-1.38-.12-1.32-.06-1.38-.12-1.38-.06-1.38-.06-1.38-.06-1.32-.06-1.38-.06-1.38-.06h-1.38l-1.38-.06h-8.28l-1.38.06h-1.38l-1.38.06-1.38.06-1.44.06-1.38.06-1.38.06-1.38.12-1.38.06-1.38.12-1.44.12-1.38.06-1.38.12-1.38.18-1.38.12-1.44.12-1.38.18-1.38.18-1.38.12-1.38.18-1.44.24-1.38.18-1.38.18-1.44.24-1.38.18-1.38.24-1.44.24-1.38.24-1.38.24-1.44.24-1.38.24-1.44.3-1.38.24-1.38.3-1.44.3-1.38.3-1.44.3-1.38.3-1.38.3-1.44.3-1.38.36-1.38.3-1.44.36-1.38.36-1.38.36-1.44.36-1.38.36-1.38.36-1.38.36-1.44.36-1.38.42-1.38.36-1.38.42-1.38.36-1.38.42-1.38.42-1.38.42-1.38.42-1.38.42-1.38.42-1.32.42-1.38.48-1.38.42-1.32.42-1.38.48-1.38.42-1.32.48-1.38.48-1.32.48-1.38.42-1.32.48-1.32.48-1.38.48-1.32.48-1.32.54-1.38.48-1.32.48-1.32.48-1.32.54-1.32.48-1.32.54-1.32.48-1.32.54-1.32.48-1.26.54-1.32.54-1.32.48-1.32.54-1.26.54-1.32.54-1.26.48-1.26.54-1.32.54-1.26.54-1.26.54-1.32.54-1.26.54-1.26.54-1.26.54-1.26.54-1.26.54-1.2.54-1.26.6-1.26.54-1.26.54-1.2.54-1.26.54-1.26.6-1.2.54-1.2.54-1.26.54-1.2.6-1.26.54-1.2.54-1.2.6-1.2.54-1.2.54-1.2.6-1.2.54-1.2.6-1.2.54-1.2.54-1.14.6-1.2.54-1.2.6-1.14.54-1.2.54-1.14.6-2.34,1.14-2.34,1.14-2.28,1.08-2.28,1.14-2.28,1.14-2.22,1.14-1.68.84-.48-.24-.48-.3-.48-.24-.42-.36-.48-.3-.42-.36-.48-.36-.42-.36-.48-.42-.42-.42-.42-.42-.42-.42-.42-.48-.42-.48Z"/>
        <path class="cls-5" d="m157.66,642.06l-.42-.48-.36-.48-.36-.54-.42-.48,17.13-8.76,28.16-13.52,2.22-.95,5.59-2.59,2.28-.98,9.74-4.29,1.13-.44,1.42-.65,19.64-7.92,2.54-.92,3.17-1.23,1.19-.4,1.63-.62,1.19-.4,1.63-.62,14.58-4.85,13.55-3.96,1.26-.31,1.67-.47,2.72-.67,1.73-.47,7.75-1.83,4.27-.85,1.67-.41,1.88-.36,1.31-.21,3.19-.63,2.71-.45,1.73-.33,3.39-.54,1.3-.16,3.14-.5,9.34-1.12,1.27-.1,1.66-.2,6.34-.5,1.28-.05,1.66-.13,9.22-.37h1.29l1.65-.06h6.3s1.23.06,1.23.06h1.63s6.31.21,6.31.21l1.23.11,3.09.13,1.23.11,1.65.07,6.17.53,1.23.15,1.65.15,1.24.15,1.64.15,4.79.61,1.15.2,3.12.4,2.57.44,1.55.21,3.12.52,8.6,1.66,5.84,1.24,5.88,1.38,11.31,2.98,5.77,1.68,10.15,3.14,2.57.87,1.63.51,15.59,5.53,2.58.98,1.62.58,19.85,7.94,17.16,7.43,1.08.54,2.77,1.2,2.69,1.26,2.04.89,10.8,5.17,3.24,1.61,6.9,3.43,16.52,8.31,7.97,3.64,6.17,2.63,1.83.65,2.91,1.12,4.67,1.5,3.05.87,6.04,1.47,7.52,1.27,7.39.65,2.8.11,6.97-.04,7.02-.57,2.51-.31,6.7-1.12,3.76-.81,8.07-2.15,4.25-1.34,1.39-.52.83-.26,8.02-3.18,8.17-3.76,4.89-2.56,4.12-2.27,3.97-2.27,9.97-6.2,14.07-9.61,12.18-9.07,11.31-8.8,4.75-3.81.9-.66,30.17-24.38,7.52-5.94,2.92-2.31,1.18-.88,1.52-1.22,24.71-17.95,19.9-12.47,20.25-10.54,21.42-8.68,17.29-5.02,1.21-.25,1.79-.41,1.06-.19,1.44-.33,10.59-1.75,2.03-.21,1.39-.22,2.24-.17,1.56-.15,8.96-.44,9.42.14,7.86.61,10.65,1.53,1.92.38,1.38.31,1.74.35.59.14c-.98,3.48-3,6.63-5.86,8.93l-1.66-.29-.84-.12-.78-.12-.84-.18-.78-.12-.84-.12-.84-.12-.84-.12-.84-.12-.84-.12-.9-.06-.84-.12-.9-.12-.84-.06-.9-.06-.9-.12-.9-.06-.9-.06-.9-.06-.96-.06-.9-.06h-.96l-.96-.06h-.9l-.96-.06h-4.98l-1.02.06h-1.02l-1.02.06-1.02.06-1.08.06-1.08.06-1.08.06-1.08.06-1.08.12-1.14.12-1.08.06-1.14.18-1.14.12-1.2.12-1.14.18-1.2.18-1.2.18-1.2.18-1.2.18-1.26.24-1.26.24-1.26.24-1.26.3-1.32.24-1.26.3-.66.18-.72.12-.66.18-.66.18-.66.12-.72.18-.66.18-.72.18-.66.18-.72.18-.66.24-.72.18-.72.18-.72.24-.72.18-.72.24-.72.24-.78.18-.72.24-.72.24-.78.24-.72.24-.78.3-.78.24-.78.24-.72.3-.78.24-.78.3-.84.3-.78.3-.78.3-.78.3-.84.3-.78.3-.84.3-.78.36-.84.3-.84.36-.84.3-.84.36-.84.36-.84.36-.84.36-.84.36-.84.42-.9.36-.84.42-.9.36-.84.42-.9.36-.84.42-.9.42-.84.42-.9.42-.84.42-.9.48-.9.42-.84.42-.9.48-.9.42-.84.48-.9.48-.9.48-.84.42-.9.48-.9.48-.84.48-.9.48-.84.54-.9.48-.84.48-.9.48-.84.54-.9.48-.84.54-.84.48-.9.54-.84.48-.84.54-.84.48-.84.54-.84.54-.84.54-.84.54-.84.48-.84.54-.84.54-.84.54-.78.54-.84.54-.78.54-.84.54-.78.48-.78.54-.84.54-.78.54-.78.54-.78.54-.78.54-.78.54-.72.54-.78.54-.78.54-.78.54-.72.48-.78.54-.72.54-.78.54-.72.54-.72.54-.72.54-.78.54-.72.54-.72.54-.72.54-.72.48-1.44,1.08-1.38,1.08-1.44,1.08-1.38,1.02-1.38,1.08-1.38,1.02-1.32,1.08-1.38,1.02-1.32,1.02-1.32,1.08-1.32,1.02-1.26,1.02-1.32,1.02-1.26,1.02-1.26,1.02-1.26.96-1.26,1.02-1.2.96-1.26,1.02-1.2.96-1.2.96-1.2.96-1.2.96-1.2.96-1.14.96-1.2.96-1.14.96-1.2.96-1.14.9-1.14.96-1.14.9-1.14.96-1.14.9-1.14.9-1.14.9-1.08.9-1.14.9-1.08.9-1.14.9-1.08.9-1.08.84-1.08.9-1.14.84-1.08.9-1.08.84-1.08.84-1.08.9-1.02.84-2.16,1.68-2.1,1.62-2.16,1.68-2.1,1.62-2.1,1.62-2.1,1.56-2.04,1.56-2.1,1.56-2.1,1.56-2.04,1.5-2.04,1.5-2.1,1.44-2.04,1.44-2.04,1.44-2.1,1.44-2.04,1.38-2.04,1.32-2.04,1.38-2.1,1.32-2.04,1.32-2.04,1.26-2.1,1.26-2.04,1.26-2.1,1.2-2.1,1.2-2.04,1.14-2.1,1.14-1.08.6-1.02.54-1.08.54-1.02.54-1.08.54-1.08.54-1.02.48-1.08.54-1.08.48-1.08.48-1.08.48-1.08.48-1.08.48-1.08.48-1.08.42-1.08.48-1.08.42-1.14.42-1.08.42-1.14.42-1.08.42-1.14.36-1.08.42-1.14.36-1.14.36-1.14.36-1.14.36-1.14.36-1.14.3-5.1,1.32-1.38.36-1.38.3-1.38.3-1.44.3-1.38.24-1.44.24-1.44.24-1.44.24-1.44.24-1.44.18-1.5.18-1.44.12-1.5.18-1.5.06-1.5.12-1.5.12-1.56.06h-1.5l-1.56.06-1.56-.06h-1.56l-1.62-.06-1.56-.06-1.62-.12-1.56-.12-1.62-.12-1.62-.18-1.68-.18-1.62-.24-1.62-.24-1.68-.3-1.62-.3-1.68-.3-1.62-.36-1.68-.42-1.68-.42-1.68-.42-1.68-.48-1.68-.48-1.68-.54-1.68-.54-1.68-.54-1.62-.6-1.68-.66-1.68-.6-1.68-.66-1.68-.72-1.62-.72-1.68-.72-1.62-.72-1.68-.72-1.68-.78-1.62-.78-1.68-.78-3.3-1.62-3.3-1.68-3.36-1.68-3.3-1.68-3.42-1.74-1.68-.84-1.68-.84-1.68-.84-1.74-.84-1.74-.84-1.74-.9-1.74-.84-1.74-.84-1.74-.84-1.8-.84-1.8-.84-1.74-.84-1.8-.78-2.82-1.32-1.38-.6-1.38-.6-1.32-.66-1.38-.6-1.44-.6-1.38-.6-1.38-.6-1.38-.6-1.38-.66-1.38-.6-1.38-.54-1.38-.6-1.44-.6-1.38-.6-1.38-.6-1.38-.54-1.38-.6-1.44-.6-1.38-.54-1.38-.6-1.38-.54-1.44-.54-1.38-.6-1.38-.54-1.38-.54-1.44-.54-1.38-.54-1.38-.54-1.38-.54-1.38-.48-1.44-.54-1.38-.54-1.38-.48-1.38-.54-1.38-.48-1.38-.54-1.38-.48-1.44-.48-1.38-.48-1.38-.48-1.38-.48-1.38-.48-1.38-.48-1.38-.42-1.44-.48-1.38-.48-1.38-.42-1.38-.42-1.38-.48-1.44-.42-1.38-.42-2.76-.84-2.82-.84-2.76-.78-2.82-.78-2.76-.72-2.82-.72-2.76-.72-2.82-.66-2.82-.66-2.82-.6-2.82-.6-2.76-.54-2.82-.54-2.82-.54-1.44-.24-1.44-.24-1.38-.18-1.44-.24-1.38-.24-1.44-.18-1.44-.18-1.38-.24-1.44-.18-1.44-.18-1.44-.18-1.44-.12-1.44-.18-1.44-.12-1.44-.18-1.44-.12-1.44-.12-1.44-.12-1.44-.12-1.44-.06-1.44-.12-1.44-.06-1.44-.06-1.44-.12-1.5-.06h-1.44l-1.44-.06-1.5-.06h-1.44l-1.44-.06h-5.88l-1.44.06h-1.5l-1.44.06-1.5.06-1.44.06-1.5.06-1.44.06-1.5.06-1.44.12-1.5.06-1.5.12-1.44.12-1.5.12-1.5.12-1.44.18-1.5.12-1.5.18-1.44.18-1.5.18-1.5.18-1.5.18-1.5.18-1.44.24-1.5.24-1.5.18-1.5.24-1.5.24-1.5.3-1.44.24-1.5.24-1.5.3-1.5.3-1.5.24-1.5.3-1.44.36-1.5.3-1.5.3-1.5.3-1.44.36-1.5.36-1.5.36-1.44.3-1.5.36-1.5.42-1.44.36-1.5.36-1.44.42-1.5.36-1.44.42-1.44.42-1.5.42-1.44.42-1.44.42-1.44.42-1.44.42-1.5.48-1.44.42-1.38.48-1.44.42-1.44.48-1.44.48-1.44.48-1.38.48-1.44.48-1.44.48-1.38.48-1.44.48-1.38.54-1.44.48-1.38.54-1.44.48-1.38.54-1.38.54-1.44.54-1.38.48-1.38.54-1.38.54-1.38.54-1.38.54-1.38.54-1.38.6-1.38.54-1.38.54-1.32.54-1.38.6-1.38.54-1.32.54-1.38.6-1.32.54-1.32.6-1.38.54-1.32.6-1.32.6-1.32.54-1.32.6-1.32.6-1.32.54-1.32.6-1.32.6-1.32.54-1.32.6-1.26.6-1.32.6-1.26.6-1.32.6-1.32.54-1.26.6-1.26.6-1.32.6-1.26.6-1.26.6-1.26.6-1.26.6-1.26.6-1.26.6-1.26.6-1.26.6-1.26.6-1.26.6-1.2.6-1.26.6-1.26.6-2.46,1.2-2.4,1.2-2.46,1.2-2.4,1.2-2.4,1.2-2.4,1.2-2.4,1.2-2.34,1.2-1.92.96-.42-.24-.48-.24-.48-.3-.42-.3-.48-.36-.48-.36-.42-.36-.42-.36-.48-.42-.42-.42-.42-.42-.42-.42-.42-.48-.42-.48Z"/>
      </g>
    </g>
  </g>
</svg>